<?xml version="1.0" encoding="utf-8"?>
<!-- Generator: Adobe Illustrator 21.0.0, SVG Export Plug-In . SVG Version: 6.00 Build 0)  -->
<svg version="1.1" id="Layer_1" xmlns="http://www.w3.org/2000/svg" xmlns:xlink="http://www.w3.org/1999/xlink" x="0px" y="0px"
	 viewBox="0 0 660 607" style="enable-background:new 0 0 660 607;" xml:space="preserve">
<style type="text/css">
	.st0{fill:none;stroke:#999999;stroke-width:1.0003;stroke-miterlimit:10;}
	.st1{fill:#FFFFFF;}
	.st2{fill:#999999;}
	.st3{fill:#FFFFFF;stroke:#999999;stroke-width:2.0007;stroke-miterlimit:10;}
	.st4{fill:none;stroke:#999999;stroke-width:2.0007;stroke-miterlimit:10;}
	.st5{fill:#FFFFFF;stroke:#999999;stroke-width:1.0003;}
	.st6{opacity:0.25;}
	.st7{fill:none;stroke:#999999;stroke-width:1.0003;}
	.st8{fill:#FFFFFF;stroke:#999999;stroke-width:1.0003;stroke-miterlimit:10;}
	.st9{fill:none;}
	.st10{fill:none;stroke:#999999;stroke-width:1.5005;}
	.st11{opacity:0.3;fill:none;stroke:#999999;stroke-width:1.0003;enable-background:new    ;}
	.st12{fill:none;stroke:#FFF9ED;stroke-width:1.0003;stroke-miterlimit:10;}
	.st13{opacity:0.3;}
	.st14{fill:none;stroke:#FFFFFF;stroke-width:1.0003;stroke-miterlimit:10;}
	.st15{opacity:0.3;clip-path:url(#SVGID_4_);}
	.st16{fill:#FFFFFF;stroke:#999999;stroke-width:1.0003;stroke-linecap:round;stroke-linejoin:round;stroke-miterlimit:10;}
	.st17{fill:#BFBFBF;stroke:#000000;stroke-width:0.605;}
	.st18{fill:#808080;stroke:#000000;stroke-width:0.605;}
	.st19{fill:none;stroke:#000000;stroke-width:0.3025;}
	.st20{fill:none;stroke:#000000;stroke-width:0.605;}
	.st21{fill:#808080;}
	.st22{fill:#888888;stroke:#000000;stroke-width:0.605;}
</style>
<g>
	<g>
		<g>
			<g>
				<path class="st0" d="M634.5,148.6c-0.4-0.5-0.8-1.8,0.7-4.4c1.9-3.2,7.7-8,8.8-8.9"/>
				<g>
					<polygon class="st1" points="642.4,148.2 644.6,144.6 644.6,144.6 644.8,144.1 645.4,144.4 647.4,141 647.9,141.3 645.8,144.8 
						646.6,145.3 647,147.3 645.6,149.6 					"/>
					<path class="st2" d="M645,144.8l0.2,0.1l-0.1,0.1l0.9,0.5l0.2,0.1l0.3,1.6l-1.1,1.8l-2.3-1l1.4-2.4L645,144.8 M647.2,140.3
						l-2,3.4l-0.5-0.3l-1,1.7l0,0l-2,3.4l4.1,1.8l1.7-2.9L647,145l-0.5-0.3l2.1-3.5L647.2,140.3L647.2,140.3z"/>
				</g>
			</g>
			<g>
				
					<ellipse transform="matrix(0.4237 -0.9058 0.9058 0.4237 233.3764 684.9803)" class="st2" cx="655" cy="159.1" rx="5.2" ry="2.8"/>
			</g>
		</g>
		<g>
			<path class="st1" d="M635.2,153.5c-0.2-0.3-0.8-1.2-0.6-2.5v-0.2l-0.2-0.2c-0.3-0.4-0.5-0.9-0.3-1.3l0.8-0.9
				c0.2-0.1,0.4-0.1,0.6-0.1c0.1,0,0.1,0,0.2,0h0.2l0.2-0.2c1-1,2-1.1,2.3-1.1l17.2,7.5c-0.8,0.5-1.8,1.4-2.9,3.3
				c-1.2,2.1-1.2,3.9-0.9,5.1L635.2,153.5z"/>
			<path class="st2" d="M638.4,147.4l3.7,1.6l4.1,1.8l8.4,3.7c-0.7,0.6-1.5,1.5-2.3,2.9c-1,1.7-1.2,3.2-1.1,4.4l-15.7-8.7
				c-0.2-0.3-0.6-1.1-0.4-2.1l0.1-0.5l-0.3-0.3c-0.2-0.2-0.3-0.5-0.2-0.8l0.6-0.7c0.1,0,0.2,0,0.3,0h0.1l0.5,0.1l0.4-0.4
				C637.3,147.5,638.1,147.4,638.4,147.4 M638.5,146.4c-0.4,0-1.5,0.1-2.7,1.3c-0.1,0-0.2,0-0.3,0c-0.3,0-0.6,0.1-0.9,0.2l-1,1.1
				c-0.2,0.7-0.1,1.4,0.4,1.9c-0.2,1.8,0.7,3,0.7,3l17.9,9.9c0,0-1.4-2.7,0.5-5.9s3.3-3.5,3.8-3.5c0.1,0,0.1,0,0.1,0l-10.5-4.5
				l-4.1-1.8L638.5,146.4C638.6,146.4,638.6,146.4,638.5,146.4L638.5,146.4z"/>
		</g>
	</g>
	<g>
		<g>
			<g>
				<polygon class="st3" points="20.2,452.2 630.7,452.2 630.8,297.2 20.2,297.2 				"/>
				<g>
					<polygon class="st1" points="20.2,452.2 630.7,452.2 630.8,607 20.2,607 					"/>
					<path class="st2" d="M629.8,607l-0.1-153.8H21.2V607h-2V451.2h612.5v1l0.1,154.8H629.8z"/>
				</g>
				<polygon class="st3" points="20.2,141 630.7,141 630.8,297.2 20.2,297.2 				"/>
			</g>
			<g>
				<polygon class="st1" points="648,141.1 3,141.1 53.6,1 597.4,1 				"/>
				<path class="st2" d="M649.4,142.1H1.6L52.9,0h545.2l0.2,0.7L649.4,142.1z M4.4,140.1h642.1L596.7,2H54.3L4.4,140.1z"/>
			</g>
		</g>
		<line class="st4" x1="324.1" y1="298.6" x2="324.1" y2="452.9"/>
		<line class="st4" x1="357.7" y1="453.2" x2="357.7" y2="607"/>
		<line class="st4" x1="297.2" y1="141.7" x2="297.2" y2="297.2"/>
	</g>
	<g>
		<path class="st5" d="M416.2,510.8h-24c-2.1,0-3.8-1.7-3.8-3.8v-14.8c0-2.1,1.7-3.8,3.8-3.8h24.1c2.1,0,3.8,1.7,3.8,3.8V507
			C420,509.1,418.3,510.8,416.2,510.8z"/>
		<path class="st5" d="M415.6,506.6h-12.4c-0.6,0-1.1-0.5-1.1-1.1v-11.6c0-0.6,0.5-1.1,1.1-1.1h12.3c0.6,0,1.1,0.5,1.1,1.1v11.6
			C416.7,506,416.2,506.6,415.6,506.6z"/>
		<g>
			
				<ellipse transform="matrix(1.531446e-02 -0.9999 0.9999 1.531446e-02 -114.1701 885.5416)" class="st2" cx="392.5" cy="500.7" rx="0.7" ry="0.7"/>
			
				<ellipse transform="matrix(1.530225e-02 -0.9999 0.9999 1.530225e-02 -112.0794 883.1485)" class="st2" cx="392.3" cy="498.5" rx="0.7" ry="0.7"/>
			
				<ellipse transform="matrix(1.588045e-02 -0.9999 0.9999 1.588045e-02 -112.3568 887.5306)" class="st2" cx="394.7" cy="500.8" rx="0.7" ry="0.7"/>
			
				<ellipse transform="matrix(1.589076e-02 -0.9999 0.9999 1.589076e-02 -110.1764 885.2112)" class="st2" cx="394.6" cy="498.6" rx="0.7" ry="0.7"/>
			
				<ellipse transform="matrix(1.555218e-02 -0.9999 0.9999 1.555218e-02 -109.9438 889.8279)" class="st2" cx="396.9" cy="500.7" rx="0.7" ry="0.7"/>
			
				<ellipse transform="matrix(1.531446e-02 -0.9999 0.9999 1.531446e-02 -107.6469 887.8274)" class="st2" cx="396.9" cy="498.6" rx="0.7" ry="0.7"/>
			
				<ellipse transform="matrix(1.492068e-02 -0.9999 0.9999 1.492068e-02 -114.259 890.1616)" class="st2" cx="394.6" cy="503.1" rx="0.7" ry="0.7"/>
			
				<ellipse transform="matrix(1.523717e-02 -0.9999 0.9999 1.523717e-02 -107.5335 883.3096)" class="st2" cx="394.7" cy="496.2" rx="0.7" ry="0.7"/>
			
				<ellipse transform="matrix(1.558590e-02 -0.9999 0.9999 1.558590e-02 -112.1483 892.0753)" class="st2" cx="397" cy="503" rx="0.7" ry="0.7"/>
			
				<ellipse transform="matrix(1.562052e-02 -0.9999 0.9999 1.562052e-02 -105.3969 885.4614)" class="st2" cx="397" cy="496.3" rx="0.7" ry="0.7"/>
			
				<ellipse transform="matrix(1.523942e-02 -0.9999 0.9999 1.523942e-02 -107.4438 892.41)" class="st2" cx="399.3" cy="500.8" rx="0.7" ry="0.7"/>
			<path class="st2" d="M399.2,499.1L399.2,499.1c-0.4,0-0.7-0.3-0.7-0.7s0.3-0.7,0.7-0.7s0.7,0.3,0.7,0.7
				C399.9,498.8,399.6,499.1,399.2,499.1z"/>
		</g>
	</g>
	<g>
		<rect x="354.2" y="399.4" class="st5" width="56.3" height="45.3"/>
		<g>
			<rect x="354.2" y="402.4" class="st2" width="56.3" height="1"/>
		</g>
		<g>
			<rect x="354.2" y="415.6" class="st2" width="56.3" height="1"/>
		</g>
		<g>
			<rect x="354.2" y="428.9" class="st2" width="56.3" height="1"/>
		</g>
		<rect x="357.5" y="444.8" class="st2" width="5.6" height="6.7"/>
		<rect x="401.7" y="444.8" class="st2" width="5.6" height="6.7"/>
		<g>
			<path class="st5" d="M372.6,410.8c-0.9,0-1.6-0.7-1.6-1.6s0.7-1.6,1.6-1.6s1.6,0.7,1.6,1.6S373.5,410.8,372.6,410.8z"/>
		</g>
		<g>
			<path class="st5" d="M372.6,423.9c-0.9,0-1.6-0.7-1.6-1.6s0.7-1.6,1.6-1.6s1.6,0.7,1.6,1.6S373.5,423.9,372.6,423.9z"/>
		</g>
		<g>
			<path class="st5" d="M372.6,438.4c-0.9,0-1.6-0.7-1.6-1.6s0.7-1.6,1.6-1.6s1.6,0.7,1.6,1.6S373.5,438.4,372.6,438.4z"/>
		</g>
		<g>
			<path class="st5" d="M392.1,410.8c-0.9,0-1.6-0.7-1.6-1.6s0.7-1.6,1.6-1.6s1.6,0.7,1.6,1.6S393,410.8,392.1,410.8z"/>
		</g>
		<g>
			<path class="st5" d="M392.1,423.9c-0.9,0-1.6-0.7-1.6-1.6s0.7-1.6,1.6-1.6s1.6,0.7,1.6,1.6S393,423.9,392.1,423.9z"/>
		</g>
		<g>
			<path class="st5" d="M392.1,438.4c-0.9,0-1.6-0.7-1.6-1.6s0.7-1.6,1.6-1.6s1.6,0.7,1.6,1.6S393,438.4,392.1,438.4z"/>
		</g>
	</g>
	<g>
		<g class="st6">
			<line class="st7" x1="31.1" y1="296.9" x2="31.1" y2="452.6"/>
			<line class="st7" x1="49.5" y1="296.9" x2="49.5" y2="452.6"/>
			<line class="st7" x1="67.9" y1="296.9" x2="67.9" y2="452.6"/>
			<line class="st7" x1="86.3" y1="296.9" x2="86.3" y2="452.6"/>
			<line class="st7" x1="40.3" y1="296.9" x2="40.3" y2="452.6"/>
			<line class="st7" x1="58.7" y1="296.9" x2="58.7" y2="452.6"/>
			<line class="st7" x1="77.1" y1="296.9" x2="77.1" y2="452.6"/>
			<line class="st7" x1="95.5" y1="296.9" x2="95.5" y2="452.6"/>
			<line class="st7" x1="22.3" y1="433.4" x2="104.5" y2="433.4"/>
			<line class="st7" x1="22.3" y1="393.1" x2="104.5" y2="393.1"/>
			<line class="st7" x1="22.3" y1="352.9" x2="104.5" y2="352.9"/>
			<line class="st7" x1="22.3" y1="312.6" x2="104.5" y2="312.6"/>
			<line class="st7" x1="22.3" y1="413.3" x2="104.5" y2="413.3"/>
			<line class="st7" x1="22.3" y1="373" x2="104.5" y2="373"/>
			<line class="st7" x1="22.3" y1="332.7" x2="104.5" y2="332.7"/>
			<line class="st7" x1="104.5" y1="296.9" x2="104.5" y2="452.6"/>
			<line class="st7" x1="113.3" y1="296.9" x2="113.3" y2="452.6"/>
			<line class="st7" x1="131.8" y1="296.9" x2="131.8" y2="452.6"/>
			<line class="st7" x1="150.2" y1="296.9" x2="150.2" y2="452.6"/>
			<line class="st7" x1="168.6" y1="296.9" x2="168.6" y2="452.6"/>
			<line class="st7" x1="122.5" y1="296.9" x2="122.5" y2="452.6"/>
			<line class="st7" x1="141" y1="296.9" x2="141" y2="452.6"/>
			<line class="st7" x1="159.4" y1="296.9" x2="159.4" y2="452.6"/>
			<line class="st7" x1="177.8" y1="296.9" x2="177.8" y2="452.6"/>
			<line class="st7" x1="104.5" y1="433.4" x2="186.8" y2="433.4"/>
			<line class="st7" x1="104.5" y1="393.1" x2="186.8" y2="393.1"/>
			<line class="st7" x1="104.5" y1="352.9" x2="186.8" y2="352.9"/>
			<line class="st7" x1="104.5" y1="312.6" x2="186.8" y2="312.6"/>
			<line class="st7" x1="104.5" y1="413.3" x2="186.8" y2="413.3"/>
			<line class="st7" x1="104.5" y1="373" x2="186.8" y2="373"/>
			<line class="st7" x1="104.5" y1="332.7" x2="186.8" y2="332.7"/>
			<line class="st7" x1="104.5" y1="296.9" x2="104.5" y2="452.6"/>
			<line class="st7" x1="186.8" y1="296.9" x2="186.8" y2="452.6"/>
		</g>
		<g>
			<g>
				<path class="st5" d="M274.2,417.5c-0.8,0-1.4,0.8-1.4,1.8l0,0c0,0.1,0,1.3,0,1.3l34.3,1.2l-1.2-4.3H274.2z"/>
				<path class="st5" d="M307.8,452.2c-5.6,0-16.8,0-22.5,0c0-9.4,0.4-16.5,2.5-20.3c2.9-5.4,19.8-8,23-2.2c-2.9,3-7.3,9.7-7.2,11
					C303.6,444.3,305.9,449,307.8,452.2L307.8,452.2z"/>
				<path class="st5" d="M301.2,429.8c-3,3-7.3,4.9-12.1,4.9c-8.8,0-16-6.4-16.4-14.4h22.2h10.5h0.6v-17.8c0-0.9,0.7-1.7,1.5-1.7
					h5.5c0.8,0,1.5,0.8,1.5,1.7v17.8v4.1v5.5L301.2,429.8L301.2,429.8L301.2,429.8z"/>
			</g>
			<g>
				<g>
					<g>
						<path class="st1" d="M65.9,409.1l-0.1-0.2c-3.4-4.5-1.8-6.6-0.3-8.4c0.8-0.9,1.5-1.8,1.6-3.1c-0.9-0.5-1.1-1.4-1-2
							c0.2-1,1-1.7,2-1.7s1.8,0.7,2.1,1.6c0.1,0.6,0,1.5-0.9,2c0.1,1.3,0.9,2.1,1.6,3.1c1.5,1.8,3.1,3.8-0.2,8.4l-0.1,0.2
							L65.9,409.1L65.9,409.1z"/>
						<path class="st2" d="M68.2,394.2c1.5,0,2.4,2,0.6,2.9c0.1,4.4,6.5,4.7,1.5,11.5h-4.1c-5-6.6,1.4-7.1,1.4-11.5
							C65.8,396.3,66.7,394.2,68.2,394.2C68.1,394.2,68.1,394.2,68.2,394.2 M68.2,393.2L68.2,393.2L68.2,393.2
							c-1.2,0-2.3,0.9-2.5,2.1c-0.2,0.9,0.2,1.8,0.9,2.3c-0.2,1-0.8,1.7-1.4,2.6c-1.5,1.9-3.3,4.2,0.3,9l0.3,0.4h0.5h4.1h0.4
							l0.3-0.4c3.6-4.9,1.7-7.2,0.2-9c-0.7-0.8-1.3-1.6-1.5-2.5c0.7-0.6,1.1-1.5,0.9-2.4C70.4,394.1,69.4,393.2,68.2,393.2
							L68.2,393.2z"/>
					</g>
					<g>
						<path class="st1" d="M60.5,409.1l-0.1-0.2c-2.5-3.3-1.3-4.8-0.2-6.1c0.5-0.6,1-1.2,1.1-2c-0.6-0.4-0.8-1-0.7-1.5
							c0.1-0.7,0.8-1.3,1.6-1.3s1.4,0.5,1.6,1.3c0.1,0.5,0,1.1-0.6,1.5c0.1,0.8,0.6,1.4,1.1,2c1.1,1.3,2.3,2.8-0.2,6.2l-0.1,0.2
							L60.5,409.1L60.5,409.1z"/>
						<path class="st2" d="M62.2,398.4c1,0,1.7,1.5,0.4,2c0.1,3.1,4.6,3.3,1.1,8.2h-2.9c-3.5-4.7,1-5.1,1-8.2
							C60.5,399.9,61.1,398.4,62.2,398.4L62.2,398.4 M62.2,397.4L62.2,397.4L62.2,397.4c-1,0-1.9,0.7-2.1,1.7
							c-0.1,0.7,0.1,1.4,0.6,1.8c-0.1,0.5-0.5,0.9-0.9,1.5c-1.1,1.3-2.5,3.1,0.2,6.7l0.3,0.4h0.5h2.9h0.5l0.3-0.4
							c2.7-3.7,1.2-5.5,0.1-6.8c-0.5-0.6-0.8-1-0.9-1.5c0.5-0.5,0.7-1.1,0.6-1.8C64,398.1,63.2,397.4,62.2,397.4L62.2,397.4z"/>
					</g>
				</g>
				<g>
					<path class="st5" d="M103.3,432.5h-4.2v-33.6c0-3.8,3.1-6.9,6.9-6.9s6.9,3.1,6.9,6.9h-4.2c0-1.5-1.2-2.7-2.7-2.7
						s-2.7,1.2-2.7,2.7L103.3,432.5L103.3,432.5z"/>
				</g>
				<path class="st5" d="M161.4,406.6h-113c0,0-2.2,36,16.9,45c5.1,0,13.8,0,18.1,0c17.8,0,29.9,0,42.9,0c4.3,0,13,0,18.1,0
					C163.6,442.6,161.4,406.6,161.4,406.6z"/>
			</g>
			<g>
				<g>
					<g>
						<ellipse class="st5" cx="230.3" cy="348.1" rx="22.5" ry="28.5"/>
						<ellipse class="st5" cx="230.3" cy="348.1" rx="19.6" ry="25.2"/>
					</g>
				</g>
				<g>
					<g>
						<g>
							<path class="st1" d="M229.3,405.4v-17.9c0-2.2,1.8-4,3.9-4h0.1c1.2,0,2.4,0.6,3.1,1.7c0.6,0.8,0.9,1.9,0.9,3.2v0.5h-2.5v-0.5
								c0-0.8-0.2-1.4-0.5-1.9c-0.2-0.3-0.5-0.6-1-0.6c-0.9,0-1.4,0.8-1.4,1.6v17.9H229.3z"/>
							<path class="st2" d="M233.3,384c1.1,0,2,0.6,2.6,1.5s0.8,1.9,0.8,3h-1.5c0-0.8-0.1-1.6-0.5-2.1c-0.3-0.5-0.8-0.8-1.4-0.8l0,0
								c-1.1,0-1.9,1-1.9,2.1v17.4h-0.1h-1.5v-17.4C229.8,385.6,231.3,384,233.3,384C233.2,384,233.2,384,233.3,384 M233.3,383
								L233.3,383L233.3,383c-2.5,0.1-4.5,2.1-4.5,4.5v17.4v1h1h1.5h0.1h1v-1v-17.4c0-0.5,0.3-1,0.9-1.1l0,0c0.1,0,0.4,0,0.6,0.4
								c0.2,0.4,0.4,0.9,0.4,1.6v1h1h1.5h1v-1c0-1.4-0.3-2.6-1-3.5C235.9,383.7,234.7,383,233.3,383L233.3,383z"/>
						</g>
						<polygon class="st7" points="233.3,402.1 227.4,402.1 227.4,452.1 233.3,452.1 						"/>
						<path class="st5" d="M233.3,411.7v-1c-2,0.1-3.9,0.1-5.8,0v1l0,0"/>
						<path class="st5" d="M253.8,398.1c0,0.1,0,0.2,0,0.3c0,6.9-10.5,12.4-23.5,12.4s-23.5-5.6-23.5-12.4c0-0.1,0-0.2,0-0.3H253.8
							L253.8,398.1z"/>
						<path class="st5" d="M253,401.8h-45.3c-0.6-1.1-0.9-2.2-0.9-3.4c0-0.1,0-0.2,0-0.3h47c0,0.1,0,0.2,0,0.3
							C253.9,399.6,253.5,400.7,253,401.8L253,401.8z"/>
					</g>
					<g>
						<g>
							<g>
								<path class="st1" d="M223.1,396.3C223,396.3,223,396.3,223.1,396.3l-0.1-0.2L223.1,396.3L223.1,396.3z M221.9,396.1
									c-0.1,0-0.1,0-0.2,0c-0.1,0-0.2,0-0.3-0.1l-0.4-0.1l-0.3-0.3c-0.2-0.2-0.3-0.4-0.4-0.7l-0.1-0.4l0.1-0.5
									c0.1-0.3,0.2-0.5,0.4-0.7l0.3-0.3l0.4-0.2c0.2,0,0.3-0.1,0.5-0.1c0.1,0,0.1,0,0.2,0s0.2,0,0.3,0.1l0.4,0.1l0.3,0.3
									c0.2,0.2,0.3,0.4,0.4,0.7l0.1,0.4l-0.1,0.4c-0.1,0.3-0.2,0.5-0.4,0.7l-0.3,0.3l-0.4,0.1C222.2,396,222.1,396.1,221.9,396.1z
									"/>
								<path class="st2" d="M221.9,393.4L221.9,393.4c0.2,0,0.2,0,0.3,0l0.3,0.1l0.2,0.2c0.1,0.1,0.2,0.3,0.2,0.5l0.1,0.3l-0.1,0.3
									c0,0.2-0.1,0.3-0.3,0.5l-0.2,0.2l-0.3,0.1c-0.1,0-0.2,0-0.3,0h-0.1c-0.1,0-0.1,0-0.2,0l-0.3-0.1l-0.2-0.2
									c-0.1-0.1-0.2-0.3-0.2-0.5l-0.1-0.3l0.1-0.3c0-0.2,0.1-0.3,0.3-0.5l0.2-0.2l0.3-0.1C221.7,393.4,221.8,393.4,221.9,393.4
									 M220.8,392.1c-0.1,0-0.2,0-0.3,0.1c-0.3,0.2-0.3,0.5-0.2,0.7c0,0,0,0.1,0.1,0.1c-0.2,0.2-0.4,0.5-0.5,0.9h-0.1
									c-0.3,0-0.5,0.2-0.5,0.5c0,0.3,0.2,0.5,0.5,0.5l0,0l0,0h0.1c0.1,0.3,0.3,0.6,0.5,0.9c0,0,0,0.1-0.1,0.1
									c-0.2,0.3-0.1,0.6,0.2,0.7c0.1,0.1,0.2,0.1,0.3,0.1c0.2,0,0.4-0.1,0.5-0.2v-0.1c0.1,0,0.2,0.1,0.4,0.1c0.1,0,0.2,0,0.3,0
									c0.2,0,0.4,0,0.6-0.1v0.1c0.1,0.2,0.3,0.3,0.5,0.3c0.1,0,0.2,0,0.3-0.1c0.3-0.2,0.3-0.5,0.2-0.7c0,0,0-0.1-0.1-0.1
									c0.2-0.2,0.4-0.5,0.5-0.9h0.1c0.3,0,0.5-0.2,0.5-0.5c0-0.3-0.2-0.5-0.5-0.5l0,0l0,0H224c-0.1-0.3-0.3-0.6-0.5-0.9
									c0,0,0-0.1,0.1-0.1c0.2-0.3,0.1-0.6-0.2-0.7c-0.1-0.1-0.2-0.1-0.3-0.1c-0.2,0-0.4,0.1-0.5,0.2v0.1c-0.1,0-0.2-0.1-0.4-0.1
									c-0.1,0-0.2,0-0.3,0c-0.2,0-0.4,0-0.6,0.1v-0.1C221.1,392.2,221,392.1,220.8,392.1L220.8,392.1z"/>
							</g>
						</g>
						<g>
							<g>
								<path class="st1" d="M241.3,396.3L241.3,396.3l-0.1-0.2L241.3,396.3L241.3,396.3z M240.2,396.1c-0.1,0-0.1,0-0.2,0
									c-0.1,0-0.2,0-0.3-0.1l-0.4-0.1l-0.3-0.3c-0.2-0.2-0.3-0.4-0.4-0.7l-0.1-0.4l0.1-0.5c0.1-0.3,0.2-0.5,0.4-0.7l0.3-0.3
									l0.4-0.2c0.2,0,0.3-0.1,0.5-0.1c0.1,0,0.1,0,0.2,0c0.1,0,0.2,0,0.3,0.1l0.4,0.1l0.3,0.3c0.2,0.2,0.3,0.4,0.4,0.7l0.1,0.4
									l-0.1,0.4c-0.1,0.3-0.2,0.5-0.4,0.7l-0.3,0.3l-0.4,0.1C240.5,396,240.3,396.1,240.2,396.1z"/>
								<path class="st2" d="M240.1,393.4L240.1,393.4c0.2,0,0.2,0,0.3,0l0.3,0.1l0.2,0.2c0.1,0.1,0.2,0.3,0.2,0.5l0.1,0.3l-0.1,0.3
									c0,0.2-0.1,0.3-0.3,0.5l-0.2,0.2l-0.3,0.1c-0.1,0-0.2,0-0.3,0h-0.1c-0.1,0-0.1,0-0.2,0l-0.3-0.1l-0.2-0.2
									c-0.1-0.1-0.2-0.3-0.2-0.5l-0.1-0.3l0.1-0.3c0-0.2,0.1-0.3,0.3-0.5l0.2-0.2l0.3-0.1C239.9,393.4,240,393.4,240.1,393.4
									 M239,392.1c-0.1,0-0.2,0-0.3,0.1c-0.3,0.2-0.3,0.5-0.2,0.7c0,0,0,0.1,0.1,0.1c-0.2,0.2-0.4,0.5-0.5,0.9H238
									c-0.3,0-0.5,0.2-0.5,0.5c0,0.3,0.2,0.5,0.5,0.5l0,0l0,0h0.1c0.1,0.3,0.3,0.6,0.5,0.9c0,0,0,0.1-0.1,0.1
									c-0.2,0.3-0.1,0.6,0.2,0.7c0.1,0.1,0.2,0.1,0.3,0.1c0.2,0,0.4-0.1,0.5-0.2v-0.1c0.1,0,0.2,0.1,0.4,0.1c0.1,0,0.2,0,0.3,0
									c0.2,0,0.4,0,0.6-0.1v0.1c0.1,0.2,0.3,0.3,0.5,0.3c0.1,0,0.2,0,0.3-0.1c0.3-0.2,0.3-0.5,0.2-0.7c0,0,0-0.1-0.1-0.1
									c0.2-0.2,0.4-0.5,0.5-0.9h0.1c0.3,0,0.5-0.2,0.5-0.5c0-0.3-0.2-0.5-0.5-0.5l0,0l0,0h-0.1c-0.1-0.3-0.3-0.6-0.5-0.9
									c0,0,0-0.1,0.1-0.1c0.2-0.3,0.1-0.6-0.2-0.7c-0.1-0.1-0.2-0.1-0.3-0.1c-0.2,0-0.4,0.1-0.5,0.2v0.1c-0.1,0-0.2-0.1-0.4-0.1
									c-0.1,0-0.2,0-0.3,0c-0.2,0-0.4,0-0.6,0.1v-0.1C239.4,392.2,239.2,392.1,239,392.1L239,392.1z"/>
							</g>
						</g>
					</g>
				</g>
			</g>
		</g>
	</g>
	<g>
		<g>
			<path class="st2" d="M454.8,553.5l-8-25.8c-0.4-1.2,0.3-2.5,1.5-2.8l0.4-0.1c1.2-0.3,2.5,0.5,2.9,1.7l0.5,1.6l1.5-0.4l-0.5-1.6
				c-0.6-2.1-2.8-3.3-4.8-2.8l-0.4,0.1c-2,0.5-3.2,2.6-2.5,4.6l8,25.8L454.8,553.5z"/>
			<polygon class="st5" points="446.4,552.9 468.2,599.6 460,549.6 			"/>
		</g>
		<path class="st2" d="M469.6,600.8c0.2,0.5-0.2,1-0.8,1.2l0,0c-0.6,0.1-1.2-0.2-1.3-0.7l-2.3-7.8c-0.2-0.5,0.2-1,0.8-1.2l0,0
			c0.6-0.1,1.2,0.2,1.3,0.7L469.6,600.8z"/>
	</g>
	<g>
		<polygon class="st8" points="396.2,388.4 396.2,388.5 396.2,398.5 376.2,398.5 376.2,388.5 376.2,388.4 376.2,378.4 396.2,378.4 
					"/>
		<rect x="378.2" y="380.2" class="st0" width="15.9" height="16.4"/>
		<g>
			<line class="st7" x1="385.6" y1="391.5" x2="389.4" y2="387.4"/>
			<line class="st7" x1="381.4" y1="391.7" x2="389.6" y2="382.7"/>
		</g>
	</g>
	<g>
		<g>
			<path class="st1" d="M375.4,351.8c-1.4,0-2.6-1.1-2.6-2.6v-14.1c0-1.4,1.1-2.6,2.6-2.6h18.5c1.4,0,2.6,1.1,2.6,2.6v14.1
				c0,1.4-1.1,2.6-2.6,2.6H375.4z"/>
			<path class="st2" d="M394,332.9c1.1,0,2.1,0.9,2.1,2.1v14.2c0,1.1-0.9,2.1-2.1,2.1h-18.5c-1.1,0-2.1-0.9-2.1-2.1v-14.1
				c0-1.1,0.9-2.1,2.1-2.1L394,332.9 M394,331.9h-18.5c-1.7,0-3.1,1.4-3.1,3.1v14.2c0,1.7,1.4,3.1,3.1,3.1H394
				c1.7,0,3.1-1.4,3.1-3.1v-14.1C397,333.3,395.7,331.9,394,331.9L394,331.9z"/>
		</g>
		<line class="st7" x1="393.1" y1="337" x2="396.1" y2="337"/>
		<line class="st7" x1="393.1" y1="339" x2="396.1" y2="339"/>
		<line class="st7" x1="393.1" y1="341" x2="396.1" y2="341"/>
		<line class="st7" x1="393.1" y1="343" x2="396.1" y2="343"/>
		<g>
			
				<ellipse transform="matrix(1.589076e-02 -0.9999 0.9999 1.589076e-02 38.625 719.1638)" class="st9" cx="384.7" cy="340" rx="0.6" ry="0.6"/>
			
				<ellipse transform="matrix(1.531446e-02 -0.9999 0.9999 1.531446e-02 40.659 721.538)" class="st9" cx="386.7" cy="340.1" rx="0.6" ry="0.6"/>
			
				<ellipse transform="matrix(1.523717e-02 -0.9999 0.9999 1.523717e-02 40.5704 717.3989)" class="st2" cx="384.5" cy="338.1" rx="0.6" ry="0.6"/>
			
				<ellipse transform="matrix(1.562052e-02 -0.9999 0.9999 1.562052e-02 42.4718 719.1986)" class="st2" cx="386.5" cy="338" rx="0.6" ry="0.6"/>
			
				<ellipse transform="matrix(1.562052e-02 -0.9999 0.9999 1.562052e-02 44.4419 721.1935)" class="st2" cx="388.5" cy="338" rx="0.6" ry="0.6"/>
			<path class="st2" d="M388.4,340.6L388.4,340.6c-0.3,0-0.6-0.3-0.6-0.6c0-0.3,0.3-0.6,0.6-0.6s0.6,0.3,0.6,0.6
				S388.7,340.6,388.4,340.6z"/>
			
				<ellipse transform="matrix(1.530225e-02 -0.9999 0.9999 1.530225e-02 31.0031 711.6835)" class="st9" cx="376.8" cy="340.1" rx="0.6" ry="0.6"/>
			
				<ellipse transform="matrix(1.589076e-02 -0.9999 0.9999 1.589076e-02 32.6243 713.3307)" class="st9" cx="378.7" cy="340.1" rx="0.6" ry="0.6"/>
			
				<ellipse transform="matrix(1.531446e-02 -0.9999 0.9999 1.531446e-02 34.7487 715.6039)" class="st2" cx="380.7" cy="340.2" rx="0.6" ry="0.6"/>
			
				<ellipse transform="matrix(1.523717e-02 -0.9999 0.9999 1.523717e-02 34.7554 711.5625)" class="st2" cx="378.6" cy="338.1" rx="0.6" ry="0.6"/>
			
				<ellipse transform="matrix(1.523717e-02 -0.9999 0.9999 1.523717e-02 32.9777 709.6312)" class="st2" cx="376.8" cy="338.1" rx="0.6" ry="0.6"/>
			
				<ellipse transform="matrix(1.562052e-02 -0.9999 0.9999 1.562052e-02 36.6594 713.3607)" class="st2" cx="380.6" cy="338.1" rx="0.6" ry="0.6"/>
			
				<ellipse transform="matrix(1.562052e-02 -0.9999 0.9999 1.562052e-02 38.6289 715.3566)" class="st9" cx="382.6" cy="338.1" rx="0.6" ry="0.6"/>
			<path class="st9" d="M382.5,340.6L382.5,340.6c-0.3,0-0.6-0.3-0.6-0.6c0-0.3,0.3-0.6,0.6-0.6c0.3,0,0.6,0.3,0.6,0.6
				S382.8,340.6,382.5,340.6z"/>
			
				<ellipse transform="matrix(1.588045e-02 -0.9999 0.9999 1.588045e-02 36.5843 721.1498)" class="st2" cx="384.6" cy="342" rx="0.6" ry="0.6"/>
			
				<ellipse transform="matrix(1.555218e-02 -0.9999 0.9999 1.555218e-02 38.6013 723.3472)" class="st2" cx="386.6" cy="342.1" rx="0.6" ry="0.6"/>
			
				<ellipse transform="matrix(1.523942e-02 -0.9999 0.9999 1.523942e-02 40.71 725.2557)" class="st2" cx="388.6" cy="342" rx="0.6" ry="0.6"/>
			
				<ellipse transform="matrix(1.531446e-02 -0.9999 0.9999 1.531446e-02 29.0566 713.3655)" class="st9" cx="376.7" cy="341.9" rx="0.6" ry="0.6"/>
			
				<ellipse transform="matrix(1.588045e-02 -0.9999 0.9999 1.588045e-02 30.6785 715.2117)" class="st9" cx="378.7" cy="342" rx="0.6" ry="0.6"/>
			
				<ellipse transform="matrix(1.555218e-02 -0.9999 0.9999 1.555218e-02 32.7896 717.3202)" class="st2" cx="380.7" cy="342" rx="0.6" ry="0.6"/>
			
				<ellipse transform="matrix(1.523942e-02 -0.9999 0.9999 1.523942e-02 34.7989 719.3188)" class="st9" cx="382.6" cy="342" rx="0.6" ry="0.6"/>
			
				<ellipse transform="matrix(1.492068e-02 -0.9999 0.9999 1.492068e-02 34.9407 723.406)" class="st2" cx="384.6" cy="344" rx="0.6" ry="0.6"/>
			
				<ellipse transform="matrix(1.558590e-02 -0.9999 0.9999 1.558590e-02 36.6236 725.0192)" class="st9" cx="386.5" cy="343.9" rx="0.6" ry="0.6"/>
			
				<ellipse transform="matrix(1.558590e-02 -0.9999 0.9999 1.558590e-02 38.5931 727.0141)" class="st9" cx="388.5" cy="343.9" rx="0.6" ry="0.6"/>
			
				<ellipse transform="matrix(1.523717e-02 -0.9999 0.9999 1.523717e-02 32.9284 721.2818)" class="st9" cx="382.6" cy="343.9" rx="0.6" ry="0.6"/>
			
				<ellipse transform="matrix(1.492068e-02 -0.9999 0.9999 1.492068e-02 28.9321 717.3724)" class="st9" cx="378.5" cy="344" rx="0.6" ry="0.6"/>
			
				<ellipse transform="matrix(1.523717e-02 -0.9999 0.9999 1.523717e-02 27.1138 715.4451)" class="st9" cx="376.8" cy="344" rx="0.6" ry="0.6"/>
			
				<ellipse transform="matrix(1.558590e-02 -0.9999 0.9999 1.558590e-02 30.8097 719.1823)" class="st2" cx="380.6" cy="343.9" rx="0.6" ry="0.6"/>
			
				<ellipse transform="matrix(1.555218e-02 -0.9999 0.9999 1.555218e-02 36.6467 725.0291)" class="st9" cx="386.5" cy="343.9" rx="0.6" ry="0.6"/>
			
				<ellipse transform="matrix(1.555218e-02 -0.9999 0.9999 1.555218e-02 30.8333 719.1922)" class="st2" cx="380.6" cy="343.9" rx="0.6" ry="0.6"/>
			
				<ellipse transform="matrix(1.492068e-02 -0.9999 0.9999 1.492068e-02 32.9935 725.2726)" class="st2" cx="384.6" cy="345.9" rx="0.6" ry="0.6"/>
			
				<ellipse transform="matrix(1.558590e-02 -0.9999 0.9999 1.558590e-02 34.5854 726.9838)" class="st2" cx="386.5" cy="345.9" rx="0.6" ry="0.6"/>
			
				<ellipse transform="matrix(1.558590e-02 -0.9999 0.9999 1.558590e-02 36.5554 728.9792)" class="st2" cx="388.5" cy="345.9" rx="0.6" ry="0.6"/>
			
				<ellipse transform="matrix(1.523717e-02 -0.9999 0.9999 1.523717e-02 30.9833 723.3477)" class="st9" cx="382.7" cy="345.9" rx="0.6" ry="0.6"/>
			
				<ellipse transform="matrix(1.492068e-02 -0.9999 0.9999 1.492068e-02 27.0865 719.3425)" class="st9" cx="378.6" cy="345.9" rx="0.6" ry="0.6"/>
			
				<ellipse transform="matrix(1.523717e-02 -0.9999 0.9999 1.523717e-02 25.0727 717.4102)" class="st9" cx="376.7" cy="346" rx="0.6" ry="0.6"/>
			
				<ellipse transform="matrix(1.558590e-02 -0.9999 0.9999 1.558590e-02 28.7722 721.1469)" class="st2" cx="380.6" cy="346" rx="0.6" ry="0.6"/>
		</g>
	</g>
	<g>
		<g>
			<g>
				<g>
					<path class="st2" d="M383.2,7.9c0.5,0,0.9,0.4,0.9,0.8v8.3c0,0.5-0.4,0.8-0.9,0.8h-7c-0.5,0-0.9-0.4-0.9-0.8V8.8
						c0-0.5,0.4-0.8,0.9-0.8H383.2 M383.2,7h-7c-1,0-1.9,0.7-1.9,1.8v8.3c0,0.9,0.8,1.8,1.9,1.8h7c1,0,1.9-0.7,1.9-1.8V8.8
						C385.1,7.7,384.3,7,383.2,7L383.2,7z"/>
				</g>
			</g>
			<g>
				<g>
					<path class="st1" d="M375.8,10.2c-0.8,0-1.5-0.7-1.5-1.4V2.6c0-0.7,0.7-1.4,1.5-1.4h7.9c0.8,0,1.5,0.7,1.5,1.4v6.2
						c0,0.7-0.7,1.4-1.5,1.4H375.8z"/>
					<path class="st2" d="M383.7,1.6c0.5,0,1,0.4,1,0.9v6.2c0,0.5-0.4,0.9-1,0.9h-7.9c-0.5,0-1-0.4-1-0.9V2.6c0-0.5,0.4-0.9,1-0.9
						H383.7 M383.7,0.8h-7.9c-1.1,0-2,0.8-2,1.9v6.2c0,1,0.9,1.9,2,1.9h7.9c1.1,0,2-0.8,2-1.9V2.7C385.7,1.6,384.8,0.8,383.7,0.8
						L383.7,0.8z"/>
				</g>
			</g>
			<g>
				<g>
					<path class="st2" d="M382.7,3.4h-5.9V8h5.9V3.4z"/>
				</g>
			</g>
			<g>
				<g>
					<g>
						<g>
							<g>
								<ellipse class="st2" cx="381.1" cy="12.5" rx="0.5" ry="0.5"/>
							</g>
						</g>
					</g>
					<g>
						<g>
							<g>
								<ellipse class="st2" cx="381.8" cy="14.7" rx="0.5" ry="0.5"/>
							</g>
						</g>
					</g>
					<g>
						<g>
							<g>
								<ellipse class="st2" cx="379.8" cy="16" rx="0.5" ry="0.5"/>
							</g>
						</g>
					</g>
					<g>
						<g>
							<g>
								<ellipse class="st2" cx="377.8" cy="14.7" rx="0.5" ry="0.5"/>
							</g>
						</g>
					</g>
					<g>
						<g>
							<g>
								<ellipse class="st2" cx="378.5" cy="12.5" rx="0.5" ry="0.5"/>
							</g>
						</g>
					</g>
				</g>
				<g>
					<ellipse class="st2" cx="379.8" cy="14.1" rx="1" ry="0.9"/>
				</g>
			</g>
		</g>
		<g>
			<g>
				<line class="st10" x1="470.5" y1="-3.6" x2="470.5" y2="39.2"/>
				<line class="st7" x1="444.1" y1="30.5" x2="497.1" y2="30.4"/>
				
					<ellipse transform="matrix(1 -1.545583e-03 1.545583e-03 1 -4.639894e-02 0.7683)" class="st5" cx="497" cy="30.4" rx="3.8" ry="3.6"/>
				
					<ellipse transform="matrix(1 -1.545583e-03 1.545583e-03 1 -4.660705e-02 0.6865)" class="st5" cx="444.1" cy="30.5" rx="3.8" ry="3.6"/>
				<line class="st7" x1="453.7" y1="22.5" x2="487.4" y2="38.4"/>
				<path class="st5" d="M484.1,36.8c0.9-1.8,3.2-2.5,5.1-1.6c1.9,0.9,2.6,3,1.7,4.8c-0.9,1.8-3.2,2.5-5.1,1.6
					C483.9,40.7,483.1,38.6,484.1,36.8z"/>
				<path class="st5" d="M450.6,21c0.9-1.8,3.2-2.5,5.1-1.6c1.9,0.9,2.6,3,1.7,4.8c-0.9,1.8-3.2,2.5-5.1,1.6
					C450.4,24.9,449.7,22.8,450.6,21z"/>
				<line class="st7" x1="487.4" y1="22.5" x2="453.7" y2="38.4"/>
				<path class="st5" d="M485.7,19.4c1.9-0.9,4.2-0.2,5.1,1.6c0.9,1.8,0.2,3.9-1.7,4.8c-1.9,0.9-4.2,0.2-5.1-1.6
					C483.1,22.4,483.8,20.2,485.7,19.4z"/>
				<path class="st5" d="M469,38.4c1.9-0.9,4.2-0.2,5.1,1.6c0.9,1.8,0.2,3.9-1.7,4.8c-1.9,0.9-4.2,0.2-5.1-1.6
					C466.3,41.4,467.1,39.3,469,38.4z"/>
				<path class="st5" d="M469,15.1c1.9-0.9,4.2-0.2,5.1,1.6c0.9,1.8,0.2,3.9-1.7,4.8s-4.2,0.2-5.1-1.6
					C466.3,18.1,467.1,15.9,469,15.1z"/>
				<path class="st5" d="M452.3,35.3c1.9-0.9,4.2-0.2,5.1,1.6c0.9,1.8,0.2,3.9-1.7,4.8c-1.9,0.9-4.2,0.2-5.1-1.6
					C449.6,38.3,450.4,36.2,452.3,35.3z"/>
			</g>
			<g>
				<g>
					<g>
						<g>
							<path class="st1" d="M407.6,99.6V71.7h0.5c1.7,0,3.1,1.3,3.1,2.9v22.2c0,1.6-1.4,2.9-3.1,2.9L407.6,99.6L407.6,99.6z"/>
							<path class="st2" d="M408.1,72.2c1.4,0,2.6,1.1,2.6,2.4v22.2c0,1.3-1.2,2.4-2.6,2.4l0,0V72.2L408.1,72.2 M408.1,71.2
								L408.1,71.2h-1v0.9v27v0.9h1c2,0,3.6-1.5,3.6-3.4V74.5C411.7,72.7,410.1,71.2,408.1,71.2L408.1,71.2z"/>
						</g>
						<g>
							<path class="st1" d="M405.6,107.6c-0.3,0-0.6-0.3-0.6-0.6v-2.8h26.9c1.6,0,3,1.2,3,2.8c0,0.4-0.3,0.6-0.6,0.6H405.6z"/>
							<path class="st2" d="M431.9,104.7c1.4,0,2.5,1,2.5,2.3l0,0c0,0.1,0,0.1-0.1,0.1h-28.7c-0.1,0-0.1,0-0.1-0.1v-2.3H431.9
								 M431.9,103.8h-26.3h-1v0.9v2.3c0,0.6,0.5,1,1.1,1h28.7c0.6,0,1.1-0.5,1.1-1C435.4,105.2,433.8,103.8,431.9,103.8
								L431.9,103.8z"/>
						</g>
						<g>
							<path class="st1" d="M431.1,139.5v-8.9h-23v8.9h-3.9v-68c0-1.2,0.7-2.2,1.6-2.2h0.6c0.9,0,1.6,0.9,1.6,2.2v35.8h26
								c1.2,0,2.2,0.7,2.2,1.6v0.7c0,0.7-0.5,1.2-1.3,1.5v28.5L431.1,139.5L431.1,139.5z M431.1,126.7v-15.6h-23v15.6H431.1z"/>
							<path class="st2" d="M406.5,69.8c0.6,0,1.1,0.7,1.1,1.7v36.3h26.5c0.9,0,1.7,0.6,1.7,1.1v0.7c0,0.6-0.6,1-1.3,1.1v28.4h-2.9
								v-8.9h-24v8.9h-2.9V71.5c0-0.9,0.5-1.7,1.1-1.7H406.5 M407.6,127.2h24v-16.5h-24V127.2 M406.5,68.9h-0.6
								c-1.2,0-2.1,1.1-2.1,2.6v67.5v0.9h1h2.9h1v-0.9v-8h22v8v0.9h1h2.9h1v-0.9v-27.7c0.8-0.4,1.3-1,1.3-1.8v-0.7
								c0-1.2-1.2-2.1-2.7-2.1h-25.6V71.5C408.6,70,407.7,68.9,406.5,68.9L406.5,68.9z M408.6,111.6h22v14.6h-22V111.6L408.6,111.6z
								"/>
						</g>
					</g>
					<g>
						<g>
							<path class="st1" d="M533,99.6c-1.7,0-3.1-1.3-3.1-2.9V74.5c0-1.6,1.4-2.9,3.1-2.9h0.5v0.5v27.4L533,99.6L533,99.6z"/>
							<path class="st2" d="M533.1,72.2v27l0,0c-1.4,0-2.6-1.1-2.6-2.4V74.5C530.5,73.3,531.6,72.2,533.1,72.2L533.1,72.2
								 M534.1,71.2h-1l0,0c-2,0-3.6,1.5-3.6,3.4v22.2c0,1.9,1.6,3.4,3.6,3.4h1v-0.9V72.2V71.2L534.1,71.2z"/>
						</g>
						<g>
							<path class="st1" d="M506.8,107.6c-0.3,0-0.6-0.3-0.6-0.6c0-1.6,1.3-2.8,3-2.8h26.9v2.8c0,0.3-0.3,0.6-0.6,0.6H506.8z"/>
							<path class="st2" d="M535.6,104.7v2.3c0,0.1,0,0.1-0.1,0.1h-28.7c-0.1,0-0.1,0-0.1-0.1l0,0c0-1.3,1.1-2.3,2.5-2.3H535.6
								 M536.6,103.8h-1h-26.4c-1.9,0-3.5,1.5-3.5,3.3c0,0.6,0.5,1,1.1,1h28.7c0.6,0,1.1-0.5,1.1-1v-2.3V103.8L536.6,103.8z"/>
						</g>
						<g>
							<path class="st1" d="M533,139.5v-8.9h-23v8.9h-3.8v-28.5c-0.8-0.3-1.3-0.8-1.3-1.5v-0.7c0-0.9,1-1.6,2.2-1.6h26V71.5
								c0-1.2,0.7-2.2,1.6-2.2h0.6c0.9,0,1.6,0.9,1.6,2.2v68H533L533,139.5z M533,126.7v-15.6h-23v15.6H533z"/>
							<path class="st2" d="M535.3,69.8c0.6,0,1.1,0.7,1.1,1.7v67.5h-2.9v-8.9h-24v8.9h-2.9v-28.4c-0.8-0.1-1.3-0.6-1.3-1.1v-0.7
								c0-0.7,0.8-1.1,1.7-1.1h26.5V71.5c0-0.9,0.5-1.7,1.1-1.7H535.3 M509.6,127.2h24v-16.5h-24V127.2 M535.3,68.9h-0.6
								c-1.2,0-2.1,1.1-2.1,2.6v35.3h-25.5c-1.5,0-2.7,0.9-2.7,2.1v0.7c0,0.7,0.5,1.4,1.3,1.8v27.7v0.9h1h2.9h1v-0.9v-8h22v8v0.9h1
								h2.9h1v-0.9V71.5C537.4,70,536.5,68.9,535.3,68.9L535.3,68.9z M510.6,111.6h22v14.6h-22V111.6L510.6,111.6z"/>
						</g>
					</g>
				</g>
				<g>
					<g>
						<g>
							<g>
								<path class="st1" d="M474.1,135h-0.2V90.4h-6.5V135h-0.3c-4,0-7.3,1.9-7.3,4.2l0,0h21.5C481.4,137,478.1,135,474.1,135z"/>
							</g>
							<g>
								<path class="st7" d="M474.1,135h-0.2V90.4h-6.5V135h-0.3c-4,0-7.3,1.9-7.3,4.2l0,0h21.5C481.4,137,478.1,135,474.1,135z"/>
							</g>
						</g>
					</g>
					<g>
						<path class="st5" d="M516.5,91.5h-91.9l0,0c0-2.3,3.2-4.2,7.3-4.2h77.3C513.3,87.2,516.5,89,516.5,91.5L516.5,91.5z"/>
					</g>
					<g>
						<g>
							<path class="st5" d="M466.7,87.2c-3.8-3.7-1.2-9.1,1-12.8h5.7c2.2,3.7,4.8,9.2,1,12.8C471.8,87.2,469.2,87.2,466.7,87.2
								L466.7,87.2z"/>
						</g>
						<g>
							<path class="st7" d="M470.7,85.5c1.1-5.3-2.9-11.2-0.6-16.5l0,0"/>
							<path class="st5" d="M475.7,62.1c0.7,0.5,0.1,2.2-1.2,3.9c-1.3,1.7-3,2.7-3.7,2.2c-0.7-0.5-0.1-2.2,1.2-3.9
								C473.4,62.5,475.1,61.5,475.7,62.1L475.7,62.1z"/>
							<path class="st5" d="M470.9,60.4c-0.8-0.1-1.7,1.6-1.8,3.7c-0.2,2.1,0.4,3.8,1.2,3.9s1.7-1.6,1.8-3.7
								C472.3,62.2,471.7,60.4,470.9,60.4L470.9,60.4z"/>
							<path class="st5" d="M473.5,60.8c0.8,0.3,0.8,2.1,0,4.1c-0.8,2-2.1,3.4-2.9,3.1c-0.8-0.3-0.8-2.1,0-4.1
								C471.4,62,472.7,60.6,473.5,60.8L473.5,60.8z"/>
							<path class="st2" d="M472.5,67.8c-0.8,1.1-1.7,1.8-2.4,1.5c-0.7-0.3-1-1.3-0.8-2.6L472.5,67.8L472.5,67.8z"/>
						</g>
						<path class="st7" d="M464.9,84.1c0.9-1.7,8.8-1.8,11.2-0.8"/>
					</g>
				</g>
			</g>
		</g>
	</g>
	<g>
		<g>
			<g>
				<polyline class="st0" points="512.5,465.1 512.5,469.8 570.8,469.8 570.8,464.7 				"/>
				<g>
					<circle class="st2" cx="512.5" cy="465.2" r="1.1"/>
				</g>
				<g>
					<circle class="st2" cx="570.8" cy="464.7" r="1.1"/>
				</g>
			</g>
		</g>
		<g>
			<g>
				<g>
					<g>
						<polygon class="st7" points="569.5,535.3 620.5,535.3 620.5,602.9 569.5,602.9 						"/>
						<polygon class="st5" points="569.5,596.9 620.5,596.9 620.5,602.9 569.5,602.9 						"/>
						<polygon class="st7" points="569.5,546.5 620.5,546.5 620.5,547.4 569.5,547.4 						"/>
						<path class="st2" d="M606,542.7c0-0.4,0.4-0.8,0.8-0.8c0.4,0,0.8,0.4,0.8,0.8c0,0.4-0.4,0.8-0.8,0.8S606,543.2,606,542.7
							L606,542.7z"/>
						<path class="st2" d="M608.8,542.7c0-0.4,0.4-0.8,0.8-0.8c0.4,0,0.8,0.4,0.8,0.8c0,0.4-0.4,0.8-0.8,0.8
							S608.8,543.2,608.8,542.7L608.8,542.7z"/>
						<path class="st2" d="M611.3,542.7c0-0.4,0.3-0.8,0.8-0.8c0.4,0,0.8,0.4,0.8,0.8c0,0.4-0.3,0.8-0.8,0.8
							C611.7,543.5,611.3,543.2,611.3,542.7L611.3,542.7z"/>
						<path class="st2" d="M606,539.9c0-0.4,0.4-0.8,0.8-0.8c0.4,0,0.8,0.4,0.8,0.8c0,0.4-0.4,0.8-0.8,0.8S606,540.3,606,539.9
							L606,539.9z"/>
						<path class="st2" d="M608.8,539.9c0-0.4,0.4-0.8,0.8-0.8c0.4,0,0.8,0.4,0.8,0.8c0,0.4-0.4,0.8-0.8,0.8
							S608.8,540.3,608.8,539.9L608.8,539.9z"/>
						<path class="st2" d="M611.3,539.9c0-0.4,0.3-0.8,0.8-0.8c0.4,0,0.8,0.4,0.8,0.8c0,0.4-0.3,0.8-0.8,0.8
							C611.7,540.7,611.3,540.3,611.3,539.9L611.3,539.9z"/>
						<path class="st7" d="M579.9,537.8c1.9,0,3.5,1.6,3.5,3.5c0,1.9-1.6,3.5-3.5,3.5s-3.5-1.6-3.5-3.5
							C576.4,539.4,578,537.8,579.9,537.8L579.9,537.8z"/>
						<path class="st7" d="M594.4,557.4c8.9,0,16.1,7.2,16.1,16.1c0,8.9-7.2,16.1-16.1,16.1c-8.9,0-16.1-7.2-16.1-16.1
							C578.3,564.6,585.5,557.4,594.4,557.4L594.4,557.4z"/>
						<path class="st0" d="M594.4,562.6c6,0,10.9,4.9,10.9,10.9s-4.9,10.9-10.9,10.9s-10.9-4.9-10.9-10.9
							C583.5,567.4,588.4,562.6,594.4,562.6L594.4,562.6z"/>
						<path class="st7" d="M605.3,573.5c0,6-4.9,10.9-10.9,10.9s-10.9-4.9-10.9-10.9C594,579.3,605.3,567.5,605.3,573.5z"/>
					</g>
					<g>
						<polygon class="st7" points="513.2,535.3 564.3,535.3 564.3,602.9 513.2,602.9 						"/>
						<polygon class="st5" points="513.2,596.9 564.3,596.9 564.3,602.9 513.2,602.9 						"/>
						<polygon class="st7" points="513.2,546.5 564.3,546.5 564.3,547.4 513.2,547.4 						"/>
						<path class="st7" d="M518.4,539h5.6c1.2,0,2.1,0.9,2.1,2.1v0.4c0,1.2-1,2.1-2.1,2.1h-5.6c-1.2,0-2.1-0.9-2.1-2.1v-0.4
							C516.3,539.9,517.3,539,518.4,539L518.4,539z"/>
						<path class="st2" d="M530.7,537.9c0.4,0,0.8,0.4,0.8,0.8c0,0.4-0.4,0.8-0.8,0.8c-0.4,0-0.8-0.4-0.8-0.8
							C530,538.2,530.3,537.9,530.7,537.9L530.7,537.9z"/>
						<path class="st2" d="M530.7,540.6c0.4,0,0.8,0.4,0.8,0.8c0,0.4-0.4,0.8-0.8,0.8c-0.4,0-0.8-0.4-0.8-0.8
							C530,540.9,530.3,540.6,530.7,540.6L530.7,540.6z"/>
						<path class="st2" d="M530.7,543.2c0.4,0,0.8,0.3,0.8,0.8c0,0.4-0.4,0.8-0.8,0.8c-0.4,0-0.8-0.3-0.8-0.8
							C530,543.5,530.3,543.2,530.7,543.2L530.7,543.2z"/>
						<path class="st2" d="M533.6,537.9c0.4,0,0.8,0.4,0.8,0.8c0,0.4-0.4,0.8-0.8,0.8s-0.8-0.4-0.8-0.8
							C532.8,538.2,533.2,537.9,533.6,537.9L533.6,537.9z"/>
						<path class="st2" d="M533.6,540.6c0.4,0,0.8,0.4,0.8,0.8c0,0.4-0.4,0.8-0.8,0.8s-0.8-0.4-0.8-0.8
							C532.8,540.9,533.2,540.6,533.6,540.6L533.6,540.6z"/>
						<path class="st2" d="M533.6,543.2c0.4,0,0.8,0.3,0.8,0.8c0,0.4-0.4,0.8-0.8,0.8s-0.8-0.3-0.8-0.8S533.2,543.2,533.6,543.2
							L533.6,543.2z"/>
						<polygon class="st7" points="536.5,539.3 551.3,539.3 551.3,543.3 536.5,543.3 						"/>
						<path class="st7" d="M557,537.8c1.9,0,3.5,1.6,3.5,3.5c0,1.9-1.6,3.5-3.5,3.5s-3.5-1.6-3.5-3.5
							C553.5,539.4,555,537.8,557,537.8L557,537.8z"/>
						<path class="st7" d="M538.1,557.4c8.9,0,16.1,7.2,16.1,16.1c0,8.9-7.2,16.1-16.1,16.1s-16.1-7.2-16.1-16.1
							C522,564.6,529.2,557.4,538.1,557.4L538.1,557.4z"/>
						<path class="st0" d="M538.1,560.9c6.9,0,12.6,5.6,12.6,12.6c0,6.9-5.6,12.6-12.6,12.6c-6.9,0-12.6-5.6-12.6-12.6
							S531.1,560.9,538.1,560.9L538.1,560.9z"/>
					</g>
				</g>
				<g>
					<rect x="601.6" y="494.6" class="st5" width="13.5" height="18.6"/>
					<path class="st5" d="M616,514h-15.2v-20.3H616V514z M602.4,512.3h11.8v-16.9h-11.8V512.3z"/>
				</g>
				<path class="st5" d="M576.1,491.6h0.2v-2.7l0,0l0,0c0-0.3,1.4-0.5,3.2-0.5c1.7,0,3.1,0.2,3.2,0.5v2.7h0.2c1.2,0,2.2,1,2.2,2.2
					v18.4c0,1.2-1,2.2-2.2,2.2h-6.7c-1.2,0-2.2-1-2.2-2.2v-18.4C573.9,492.6,574.9,491.6,576.1,491.6L576.1,491.6z"/>
				<path class="st5" d="M581.9,501.4h0.2v-2.7l0,0l0,0c0-0.3,2.5-0.5,4.2-0.5s4.2,0.2,4.2,0.5v2.7h0.2c1.2,0,2.2,1,2.2,2.2v8.7
					c0,1.2-1,2.2-2.2,2.2h-8.9c-1.2,0-2.2-1-2.2-2.2v-8.7C579.7,502.4,580.7,501.4,581.9,501.4L581.9,501.4z"/>
				<rect x="600.9" y="498.2" class="st5" width="15" height="11.4"/>
				<rect x="585.5" y="504.6" class="st5" width="7.4" height="1.7"/>
				<rect x="585.5" y="507.7" class="st5" width="7.4" height="3.2"/>
				<g>
					<g>
						<g>
							<rect x="571.4" y="516.2" class="st2" width="2.9" height="3.2"/>
							<rect x="615" y="516.2" class="st2" width="2.9" height="3.2"/>
						</g>
					</g>
					<rect x="566.8" y="514" class="st5" width="55.6" height="2.2"/>
				</g>
				<line class="st7" x1="576.3" y1="491.6" x2="582.7" y2="491.6"/>
				<line class="st7" x1="582.2" y1="501.4" x2="590.4" y2="501.4"/>
			</g>
			<path class="st0" d="M611.8,458.3h-9.2c-1.3,0-2.3-0.8-2.3-1.8v-2.8h13.9v2.8C614.2,457.6,613.1,458.3,611.8,458.3z"/>
			<g>
				<g>
					<path class="st2" d="M542.7,480.3L542.7,480.3h-26.9c-0.2,0-0.4-0.1-0.4-0.3c0-0.2,0-0.4,0.2-0.5L529,473
						c0.1-0.1,0.3-0.1,0.4,0l13.4,6.5c0.2,0,0.3,0.2,0.3,0.4C543.2,480.1,543,480.3,542.7,480.3z M517.6,479.5h23.2l-11.6-5.6
						L517.6,479.5z"/>
				</g>
				<g>
					<g>
						<path class="st2" d="M529.2,473.9c-0.2,0-0.4-0.2-0.4-0.4v-0.8c0-0.2,0.2-0.4,0.4-0.4s0.4,0.2,0.4,0.4v0.8
							C529.6,473.7,529.4,473.9,529.2,473.9z"/>
					</g>
					<g>
						<path class="st2" d="M529.2,473.1c-0.2,0-0.4-0.2-0.4-0.4c0-1,0.6-1.5,1.1-2c0.2-0.2,0.5-0.4,0.5-0.6c0-0.5-0.1-0.9-0.3-1.1
							c-0.3-0.3-0.9-0.4-1.4-0.3c-1.1,0.1-1,1-1,1.2s-0.2,0.4-0.4,0.5c-0.2,0-0.4-0.2-0.5-0.4c-0.1-0.7,0.3-2,1.8-2.1
							c0.9-0.1,1.6,0.1,2.1,0.6c0.4,0.4,0.6,1,0.5,1.8c0,0.5-0.4,0.8-0.8,1.2c-0.4,0.4-0.8,0.7-0.8,1.3
							C529.6,472.9,529.4,473.1,529.2,473.1z"/>
					</g>
				</g>
			</g>
		</g>
		<g>
			<g>
				<path class="st2" d="M576.5,480.3L576.5,480.3h-26.9c-0.2,0-0.4-0.1-0.4-0.3c0-0.2,0-0.4,0.2-0.5l13.4-6.5
					c0.1-0.1,0.3-0.1,0.4,0l13.4,6.5c0.2,0,0.3,0.2,0.3,0.4S576.7,480.3,576.5,480.3z M551.5,479.5h23.2l-11.6-5.6L551.5,479.5z"/>
			</g>
			<g>
				<g>
					<path class="st2" d="M563,473.9c-0.2,0-0.4-0.2-0.4-0.4v-0.8c0-0.2,0.2-0.4,0.4-0.4s0.4,0.2,0.4,0.4v0.8
						C563.4,473.7,563.2,473.9,563,473.9z"/>
				</g>
				<g>
					<path class="st2" d="M563,473.1c-0.2,0-0.4-0.2-0.4-0.4c0-1,0.6-1.5,1.1-2c0.2-0.2,0.5-0.4,0.5-0.6c0-0.5-0.1-0.9-0.3-1.1
						c-0.3-0.3-0.9-0.4-1.4-0.3c-1.1,0.1-1,1-1,1.2s-0.2,0.4-0.4,0.5c-0.2,0-0.4-0.2-0.5-0.4c-0.1-0.7,0.3-2,1.8-2.1
						c0.9-0.1,1.6,0.1,2.1,0.6c0.4,0.4,0.6,1,0.5,1.8c0,0.5-0.4,0.8-0.8,1.2c-0.4,0.4-0.8,0.7-0.8,1.3
						C563.4,472.9,563.2,473.1,563,473.1z"/>
				</g>
			</g>
		</g>
	</g>
	<g>
		<g>
			<g>
				<polygon class="st0" points="567,212.6 566.7,212.6 523.9,212.6 523.9,150.2 566.7,150.2 567,150.2 609.8,150.2 609.8,212.6 
									"/>
				<g>
					<rect x="528" y="154.3" class="st0" width="37.5" height="54.3"/>
					<rect x="568.2" y="154.3" class="st0" width="37.5" height="54.3"/>
				</g>
			</g>
			<g>
				<g>
					<line class="st11" x1="580" y1="187.7" x2="589.4" y2="195.3"/>
					<line class="st11" x1="579.5" y1="179.2" x2="600" y2="195.7"/>
				</g>
				<g>
					<line class="st11" x1="539.8" y1="187.7" x2="549.2" y2="195.3"/>
					<line class="st11" x1="539.3" y1="179.2" x2="559.8" y2="195.7"/>
				</g>
			</g>
			<path class="st7" d="M511.9,227.8h-0.7c-1.2,0-2.2-1-2.2-2.2v-75.3c0-1.2,1-2.2,2.2-2.2h0.7c1.2,0,2.2,1,2.2,2.2v75.4
				C514,226.9,513,227.8,511.9,227.8z"/>
			<path class="st7" d="M516.6,227.8h-0.7c-1.2,0-2.2-1-2.2-2.2v-75.3c0-1.2,1-2.2,2.2-2.2h0.7c1.2,0,2.2,1,2.2,2.2v75.4
				C518.9,226.9,517.9,227.8,516.6,227.8z"/>
			<path class="st7" d="M521.5,227.8h-0.7c-1.2,0-2.2-1-2.2-2.2v-75.3c0-1.2,1-2.2,2.2-2.2h0.7c1.2,0,2.2,1,2.2,2.2v75.4
				C523.7,226.9,522.7,227.8,521.5,227.8z"/>
			<path class="st7" d="M612.7,227.8H612c-1.2,0-2.2-1-2.2-2.2v-75.3c0-1.2,1-2.2,2.2-2.2h0.7c1.2,0,2.2,1,2.2,2.2v75.4
				C614.9,226.9,613.9,227.8,612.7,227.8z"/>
			<path class="st7" d="M617.5,227.8h-0.7c-1.2,0-2.2-1-2.2-2.2v-75.3c0-1.2,1-2.2,2.2-2.2h0.7c1.2,0,2.2,1,2.2,2.2v75.4
				C619.6,226.9,618.7,227.8,617.5,227.8z"/>
			<path class="st7" d="M622.3,227.8h-0.7c-1.2,0-2.2-1-2.2-2.2v-75.3c0-1.2,1-2.2,2.2-2.2h0.7c1.2,0,2.2,1,2.2,2.2v75.4
				C624.4,226.9,623.5,227.8,622.3,227.8z"/>
		</g>
	</g>
	<g>
		<g>
			<path class="st12" d="M113.7,36.5"/>
			<path class="st12" d="M254.4,36.5"/>
			<g class="st13">
				<line class="st7" x1="262.6" y1="87.4" x2="262.6" y2="0.5"/>
				<line class="st7" x1="240.6" y1="87.4" x2="240.6" y2="0.5"/>
				<line class="st7" x1="218.6" y1="87.4" x2="218.6" y2="0.5"/>
				<line class="st7" x1="273.6" y1="87.4" x2="273.6" y2="0.5"/>
				<line class="st7" x1="251.6" y1="87.4" x2="251.6" y2="0.5"/>
				<line class="st7" x1="229.6" y1="87.4" x2="229.6" y2="0.5"/>
				<line class="st7" x1="207.6" y1="87.4" x2="207.6" y2="0.5"/>
				<line class="st7" x1="197.4" y1="63.8" x2="284.1" y2="63.8"/>
				<line class="st7" x1="197.4" y1="48" x2="284.1" y2="48"/>
				<line class="st7" x1="197.4" y1="32.2" x2="284.1" y2="32.2"/>
				<line class="st7" x1="197.4" y1="16.3" x2="284.1" y2="16.3"/>
				<line class="st7" x1="197.4" y1="8.4" x2="284.1" y2="8.4"/>
				<line class="st7" x1="197.4" y1="55.9" x2="284.1" y2="55.9"/>
				<line class="st7" x1="197.4" y1="71.7" x2="284.1" y2="71.7"/>
				<line class="st7" x1="197.4" y1="79.6" x2="284.1" y2="79.6"/>
				<line class="st7" x1="197.4" y1="87.4" x2="284.1" y2="87.4"/>
				<line class="st7" x1="197.4" y1="40.1" x2="284.1" y2="40.1"/>
				<line class="st7" x1="197.4" y1="24.3" x2="284.1" y2="24.3"/>
				<line class="st7" x1="284.1" y1="87.4" x2="284.1" y2="0.5"/>
				<line class="st7" x1="197.4" y1="87.4" x2="197.4" y2="0.5"/>
				<line class="st7" x1="197.4" y1="0.5" x2="284.1" y2="0.5"/>
			</g>
			<rect x="47.9" y="90" class="st5" width="236.6" height="51.3"/>
			<g>
				<g>
					<rect x="196.9" y="90" class="st2" width="0.9" height="51.3"/>
				</g>
				<g>
					<rect x="197.1" y="120.2" class="st2" width="19.2" height="0.8"/>
				</g>
				<g>
					<rect x="197.1" y="105" class="st2" width="19.2" height="0.8"/>
				</g>
			</g>
			<polygon class="st5" points="47.8,87.1 47.8,90.3 228.4,90.3 257.6,90.3 285.9,90.3 285.9,87.1 257.6,87.1 228.4,87.1 			"/>
			<g>
				<rect x="212.8" y="87" class="st5" width="54.4" height="54.3"/>
				<rect x="223.1" y="112.5" class="st5" width="33.3" height="21.7"/>
				<rect x="212.8" y="105" class="st2" width="54.4" height="0.8"/>
				<rect x="212.8" y="99.6" class="st2" width="54.4" height="0.8"/>
				<g>
					<path class="st2" d="M224.4,93.6c0-1-0.9-1.8-2-1.8s-2,0.8-2,1.8s0.9,1.8,2,1.8C223.4,95.4,224.4,94.6,224.4,93.6z M223.5,93.6
						c0,0.6-0.5,1-1.1,1s-1.1-0.5-1.1-1s0.5-1,1.1-1C222.9,92.6,223.4,93,223.5,93.6z"/>
				</g>
				<g>
					<path class="st2" d="M232.9,93.6c0-1-0.9-1.8-2-1.8s-2,0.8-2,1.8s0.9,1.8,2,1.8C231.9,95.4,232.9,94.6,232.9,93.6z M232,93.6
						c0,0.6-0.5,1-1.1,1s-1.1-0.5-1.1-1s0.5-1,1.1-1C231.4,92.6,231.9,93,232,93.6z"/>
				</g>
				<g>
					<path class="st2" d="M241.4,93.6c0-1-0.9-1.8-2-1.8s-2,0.8-2,1.8s0.9,1.8,2,1.8C240.4,95.4,241.4,94.6,241.4,93.6z M240.5,93.6
						c0,0.6-0.5,1-1.1,1s-1.1-0.5-1.1-1s0.5-1,1.1-1C239.9,92.6,240.4,93,240.5,93.6z"/>
				</g>
				<g>
					<path class="st2" d="M249.9,93.6c0-1-0.9-1.8-2-1.8s-2,0.8-2,1.8s0.9,1.8,2,1.8C248.9,95.4,249.9,94.6,249.9,93.6z M249,93.6
						c0,0.6-0.5,1-1.1,1s-1.1-0.5-1.1-1s0.5-1,1.1-1C248.4,92.6,248.9,93,249,93.6z"/>
				</g>
				<g>
					<path class="st2" d="M258.4,93.6c0-1-0.9-1.8-2-1.8s-2,0.8-2,1.8s0.9,1.8,2,1.8C257.4,95.4,258.4,94.6,258.4,93.6z M257.5,93.6
						c0,0.6-0.5,1-1.1,1s-1.1-0.5-1.1-1s0.5-1,1.1-1C256.9,92.6,257.4,93,257.5,93.6z"/>
				</g>
			</g>
			<g>
				<rect x="68.3" y="20.5" class="st5" width="59" height="120.9"/>
				<g>
					<rect x="68.3" y="89.9" class="st2" width="59" height="1"/>
				</g>
				<g>
					<rect x="118.7" y="33" class="st5" width="2" height="40.5"/>
				</g>
				<g>
					<rect x="78.2" y="97.4" class="st5" width="37.9" height="1.8"/>
				</g>
			</g>
			<g>
				<g>
					<g>
						<path class="st5" d="M212.7,39.4l22.4-18.4c0.1-0.1,0-20.6,0-20.6h9.4c0,0-0.1,20.6,0,20.6l22.4,18.4l-0.2,0.9h-53.7
							L212.7,39.4z"/>
					</g>
				</g>
				<polygon class="st5" points="242.2,20.9 237.4,20.9 223.2,40.3 256.4,40.3 				"/>
			</g>
			<g>
				<g>
					<path class="st5" d="M162.3,87.2l0.1-15.6c0-3.2-2.9-5.8-6.4-5.8s-6.4,2.6-6.4,5.8h-2.9c0-4.7,4.1-8.4,9.2-8.4s9.2,3.8,9.2,8.4
						v15.6H162.3L162.3,87.2z"/>
				</g>
				<polygon class="st5" points="150.8,82.9 156.4,82.9 155.4,87.2 151.8,87.2 				"/>
				<polygon class="st5" points="170.8,82.9 176.3,82.9 175.3,87.2 171.8,87.2 				"/>
			</g>
			<line class="st7" x1="244.4" y1="20.9" x2="235.1" y2="20.9"/>
		</g>
		<path class="st0" d="M154.4,3v-3.1h15.4V3c0,1.3-1.2,2.4-2.6,2.4h-10.2C155.6,5.4,154.4,4.4,154.4,3z"/>
	</g>
	<g>
		<g>
			<g>
				<g>
					<g>
						<polygon class="st1" points="579,451.4 576.1,441.2 579.9,441.2 582.9,451.4 						"/>
						<path class="st2" d="M579.6,441.7l2.6,9.2h-2.8l-2.6-9.2H579.6 M580.3,440.7h-4.9l3.2,11.2h4.9L580.3,440.7L580.3,440.7z"/>
					</g>
					<g>
						<polygon class="st1" points="478.8,451.4 481.8,441.2 485.5,441.2 482.7,451.4 						"/>
						<path class="st2" d="M484.9,441.7l-2.5,9.2h-2.8l2.6-9.2H484.9 M486.2,440.7h-4.8l-3.2,11.2h4.9L486.2,440.7L486.2,440.7z"/>
					</g>
				</g>
				<g>
					<path class="st5" d="M573.9,390h-18.6c-3,0-10.9,0-13.9,0h-53.3c-4.4,0-7.9,3.9-7.9,8.7V429h67.2h1.9h32.5v-30.3
						C581.8,393.9,578.3,390,573.9,390z"/>
					<g>
						<path class="st1" d="M475.4,443.8c-4.2,0-7.7-3.8-7.7-8.5v-32c0-2,1.4-3.5,3.2-3.5h5c3.4,0,6.1,3,6.1,6.8v20.5h97.9v-20.5
							c0-3.7,2.7-6.8,6.1-6.8h5c1.7,0,3.2,1.6,3.2,3.5v32c0,4.7-3.5,8.5-7.7,8.5H475.4z"/>
						<g>
							<path class="st2" d="M590.8,400.3c1.5,0,2.7,1.4,2.7,3v32c0,4.4-3.2,8-7.2,8h-20.1h-36.1h-54.8c-4,0-7.2-3.6-7.2-8v-32
								c0-1.7,1.2-3,2.7-3h5c3.1,0,5.6,2.8,5.6,6.3v20v1h1h47.8h36.1h13h1v-1v-20c0-3.4,2.5-6.3,5.6-6.3H590.8 M590.8,399.3h-5
								c-3.6,0-6.6,3.2-6.6,7.3v20h-13h-36.1h-47.8v-20c0-4-3-7.3-6.6-7.3h-5c-2,0-3.7,1.8-3.7,4v32c0,5,3.7,9,8.2,9H530h36.1h20.1
								c4.5,0,8.2-4,8.2-9v-32C594.5,401.1,592.8,399.3,590.8,399.3L590.8,399.3z"/>
						</g>
					</g>
				</g>
				<path class="st14" d="M518.7,442.2"/>
			</g>
		</g>
		<g>
			<g>
				<polygon class="st0" points="530.9,377.6 530.6,377.6 487.9,377.6 487.9,315.1 530.6,315.1 530.9,315.1 573.7,315.1 
					573.7,377.6 				"/>
				<g>
					<rect x="492" y="319.2" class="st0" width="37.5" height="54.3"/>
					<rect x="532.1" y="319.2" class="st0" width="37.5" height="54.3"/>
				</g>
			</g>
			<g>
				<g>
					<line class="st11" x1="541.9" y1="350.6" x2="551.3" y2="358.3"/>
					<line class="st11" x1="541.4" y1="342.1" x2="561.9" y2="358.7"/>
				</g>
				<g>
					<line class="st11" x1="501.7" y1="350.6" x2="511.1" y2="358.3"/>
					<line class="st11" x1="501.2" y1="342.1" x2="521.7" y2="358.7"/>
				</g>
			</g>
		</g>
	</g>
	<g>
		<g>
			<path class="st2" d="M280.3,468.2H146.6c-0.2,0-0.4,0.2-0.4,0.4l0,0c0,0.2,0.2,0.4,0.4,0.4h133.6c0.2,0,0.4-0.2,0.4-0.4l0,0
				C280.7,468.4,280.5,468.2,280.3,468.2L280.3,468.2z"/>
			<g>
				<path class="st2" d="M159,468.5v-15c0-0.2-0.2-0.4-0.4-0.4l0,0c-0.2,0-0.4,0.2-0.4,0.4v15c0,0.2,0.2,0.4,0.4,0.4l0,0
					C158.8,469,159,468.8,159,468.5L159,468.5z"/>
				<path class="st2" d="M262.1,468.5v-15c0-0.2-0.2-0.4-0.4-0.4l0,0c-0.2,0-0.4,0.2-0.4,0.4v15c0,0.2,0.2,0.4,0.4,0.4l0,0
					C261.9,469,262.1,468.8,262.1,468.5L262.1,468.5z"/>
				<path class="st2" d="M210.6,468.5v-15c0-0.2-0.2-0.4-0.4-0.4l0,0c-0.2,0-0.4,0.2-0.4,0.4v15c0,0.2,0.2,0.4,0.4,0.4l0,0
					C210.4,469,210.6,468.8,210.6,468.5L210.6,468.5z"/>
			</g>
		</g>
	</g>
	<g>
		<g>
			<g>
				<polygon class="st2" points="336.4,225 334.6,225 334.6,252.6 336.4,252.6 				"/>
				<path class="st5" d="M330.9,214.1c2.8,0,7.1,0,9.9,0c0.5,9.2,2.1,17.8,8.3,25.6c-9,0-17.9,0-26.9,0
					C328.3,232,330.4,223.3,330.9,214.1L330.9,214.1z"/>
				<path class="st2" d="M329.4,253.5c0,0.3,0,0.5,0,0.8c4.1,0,8.2,0,12.4,0c0-0.2,0-0.5,0-0.7C341.8,251.5,329.4,251.6,329.4,253.5
					L329.4,253.5z"/>
			</g>
			<g>
				<rect x="319.3" y="254.1" class="st5" width="32.1" height="34.2"/>
				<g>
					<rect x="319.3" y="263.8" class="st2" width="32.1" height="0.8"/>
				</g>
				<rect x="350.4" y="253.3" class="st5" width="4" height="42"/>
				<rect x="316.1" y="253.3" class="st5" width="4" height="42"/>
				<g>
					<rect x="333.5" y="256" class="st2" width="3.4" height="0.8"/>
				</g>
				<g>
					<rect x="333.5" y="269" class="st2" width="3.4" height="0.8"/>
				</g>
			</g>
		</g>
		<g>
			<g>
				<g>
					<g>
						<path class="st1" d="M395.4,256.4v-37.6c9.5-5.4,31.4-8.8,57.4-8.8c26.1,0,48.1,3.4,57.8,8.8v37.6H395.4z"/>
						<path class="st2" d="M452.8,210.6c25.7,0,47.6,3.3,57.3,8.6V256H395.9v-36.9C405.5,213.8,427.1,210.6,452.8,210.6
							 M452.8,209.6c-23.9,0-47.7,3-57.9,9c0,9.1,0,38.4,0,38.4h116.3c0,0,0-26.6,0-38.4C500.6,212.6,476.6,209.6,452.8,209.6
							L452.8,209.6z"/>
					</g>
				</g>
				<g>
					<path class="st5" d="M456,251.3c-0.9,0-1.7-0.8-1.5-1.8c0.3-2.2,0.8-6.2,0.8-11.3c0-4.4-0.4-7.8-0.7-9.9
						c-0.2-1,0.7-1.9,1.7-1.8c3.8,0.5,12.1,1.3,20,1.3s16.2-0.9,20-1.3c1-0.1,1.8,0.8,1.7,1.8c-0.3,2-0.7,5.5-0.7,9.9
						c0,5.1,0.5,9.2,0.8,11.3c0.1,0.9-0.6,1.8-1.5,1.8"/>
					<path class="st5" d="M411.4,251.3c-0.9,0-1.7-0.8-1.5-1.8c0.3-2.2,0.8-6.2,0.8-11.3c0-4.4-0.4-7.8-0.7-9.9
						c-0.2-1,0.7-1.9,1.7-1.8c3.8,0.5,12.1,1.3,20,1.3s16.2-0.9,20-1.3c1-0.1,1.8,0.8,1.7,1.8c-0.3,2-0.7,5.5-0.7,9.9
						c0,5.1,0.5,9.2,0.8,11.3c0.1,0.9-0.6,1.8-1.5,1.8"/>
				</g>
				<g>
					<rect x="502.3" y="287.6" class="st5" width="12" height="7.8"/>
					<rect x="391.8" y="288.7" class="st5" width="12" height="6.6"/>
				</g>
			</g>
			<path class="st5" d="M376.5,265.5c0-7.7,6.2-13.9,13.9-13.9h125.1c7.7,0,13.9,6.2,13.9,13.9s0,23.3,0,23.3H376.5
				C376.5,288.8,376.5,273.2,376.5,265.5z"/>
		</g>
		<g>
			<g>
				<polygon id="SVGID_1_" class="st1" points="453,205.6 452.9,205.6 420.6,205.6 420.6,171.2 452.9,171.2 453,171.2 485.1,171.2 
					485.1,205.6 				"/>
			</g>
			<g>
				<g>
					<g>
						<g>
							<g>
								<defs>
									<polygon id="SVGID_3_" points="453,205.6 452.9,205.6 420.6,205.6 420.6,171.2 452.9,171.2 453,171.2 485.1,171.2 
										485.1,205.6 									"/>
								</defs>
								<clipPath id="SVGID_4_">
									<use xlink:href="#SVGID_3_"  style="overflow:visible;"/>
								</clipPath>
								<g class="st15">
									<line class="st7" x1="426.5" y1="179.2" x2="463.3" y2="216"/>
									<line class="st7" x1="435" y1="170.8" x2="471.6" y2="207.5"/>
									<line class="st7" x1="443.4" y1="162.3" x2="480" y2="199.1"/>
									<line class="st7" x1="422.3" y1="183.4" x2="459" y2="220.2"/>
									<line class="st7" x1="430.8" y1="175" x2="467.5" y2="211.8"/>
									<line class="st7" x1="439.1" y1="166.6" x2="475.9" y2="203.3"/>
									<line class="st7" x1="447.5" y1="158.1" x2="484.3" y2="194.9"/>
									<line class="st7" x1="445" y1="214.2" x2="478.1" y2="181"/>
									<line class="st7" x1="438.4" y1="207.5" x2="471.5" y2="174.3"/>
									<line class="st7" x1="431.6" y1="200.8" x2="464.8" y2="167.6"/>
									<line class="st7" x1="425" y1="194.1" x2="458" y2="161"/>
									<line class="st7" x1="421.6" y1="190.8" x2="454.6" y2="157.6"/>
									<line class="st7" x1="441.6" y1="210.8" x2="474.8" y2="177.7"/>
									<line class="st7" x1="448.3" y1="217.5" x2="481.5" y2="184.4"/>
									<line class="st7" x1="451.6" y1="220.9" x2="484.8" y2="187.7"/>
									<line class="st7" x1="455" y1="224.2" x2="488.1" y2="191.1"/>
									<line class="st7" x1="435" y1="204.1" x2="468" y2="171"/>
									<line class="st7" x1="428.4" y1="197.5" x2="461.4" y2="164.3"/>
									<line class="st7" x1="418.3" y1="187.4" x2="455" y2="224.2"/>
									<line class="st7" x1="451.4" y1="154.3" x2="488.1" y2="191.1"/>
									<line class="st7" x1="418.3" y1="187.4" x2="451.4" y2="154.3"/>
								</g>
							</g>
						</g>
					</g>
				</g>
			</g>
			<g>
				<polygon id="SVGID_2_" class="st7" points="453,205.6 452.9,205.6 420.6,205.6 420.6,171.2 452.9,171.2 453,171.2 485.1,171.2 
					485.1,205.6 				"/>
			</g>
		</g>
		<g>
			<path class="st16" d="M319,188.2h-4.9v6.2h4.9V188.2z"/>
		</g>
	</g>
	<g>
		<g>
			<path class="st0" d="M20.7,147.4l0.4-6.5l5,1.2l-1.3,6.2C24.7,148.3,20.7,147.4,20.7,147.4z"/>
			<path class="st8" d="M26.5,153.1c-2.6-0.6-4.8-4.3-4-8.2c0.8-3.8,4-6.4,7-5.8l3.4,0.7l-3,13.9C29.9,153.8,26.6,153.1,26.5,153.1z
				"/>
			<g>
				<g>
					<path class="st8" d="M31.8,139.8c-2.8,0-5.3,2.5-6.1,5.9c-0.8,3.8,0.9,7.5,4,8.2c0.3,0.1,0.6,0.1,1,0.1c2.8,0,5.3-2.5,6.1-5.9
						c0.4-1.9,0.2-3.7-0.5-5.3c-0.8-1.5-2-2.6-3.4-2.9C32.6,139.8,32.1,139.8,31.8,139.8L31.8,139.8"/>
				</g>
				
					<ellipse transform="matrix(0.2139 -0.9769 0.9769 0.2139 -118.6244 145.9428)" class="st2" cx="31.4" cy="146.7" rx="3.4" ry="2.7"/>
			</g>
		</g>
		<g>
			<path class="st16" d="M279.9,149.1H275v6.2h4.9V149.1z"/>
		</g>
		<g>
			<g>
				<g>
					<polygon class="st8" points="70.2,208.1 70,208.1 32.2,208.1 32.2,161.8 70,161.8 70.2,161.8 108.1,161.8 108.1,208.1 					"/>
					<g>
						<rect x="35.8" y="166.5" class="st0" width="33.1" height="36.8"/>
						<rect x="71.3" y="166.5" class="st0" width="33.1" height="36.8"/>
					</g>
				</g>
				<g>
					<line class="st11" x1="81.7" y1="183.6" x2="90" y2="192.4"/>
					<line class="st11" x1="81.3" y1="173.8" x2="99.4" y2="192.8"/>
				</g>
				<g>
					<line class="st11" x1="46.2" y1="183.6" x2="54.5" y2="192.4"/>
					<line class="st11" x1="45.7" y1="173.8" x2="63.9" y2="192.8"/>
				</g>
			</g>
			<g>
				<g>
					<path class="st2" d="M238.5,215.9L238.5,215.9l-1.2,0.1v-0.1c0-6.1,5.5-11.1,12.3-11.1c6.8,0,12.3,5,12.3,11.1V233h-1.2v-17.1
						c0-5.5-5-10-11.1-10S238.5,210.4,238.5,215.9z"/>
					<path class="st2" d="M246.7,219.3c-1.7-1.7-5.1-2.8-8.9-2.8c-3.8,0-7.2,1.2-8.9,2.8h-1.6c1.6-2.3,5.6-4,10.5-4s8.9,1.6,10.5,4
						H246.7z"/>
					<rect x="237.7" y="216.4" class="st2" width="0.4" height="4.6"/>
					<rect x="247.2" y="219.1" class="st2" width="0.4" height="4.6"/>
					<rect x="228" y="219.1" class="st2" width="0.4" height="4.6"/>
					<g>
						<ellipse class="st2" cx="228.2" cy="223.9" rx="1.2" ry="1.1"/>
						<g>
							<ellipse class="st2" cx="227.5" cy="223.2" rx="0.6" ry="0.5"/>
							<ellipse class="st2" cx="228.9" cy="223.2" rx="0.6" ry="0.5"/>
						</g>
						<ellipse class="st2" cx="228.2" cy="226.1" rx="1.3" ry="1.5"/>
						<g>
							<ellipse class="st2" cx="226.7" cy="225.7" rx="0.5" ry="0.4"/>
							<ellipse class="st2" cx="229.7" cy="225.7" rx="0.5" ry="0.4"/>
						</g>
						<g>
							<ellipse class="st2" cx="227.2" cy="227.5" rx="0.5" ry="0.5"/>
							<ellipse class="st2" cx="229.3" cy="227.5" rx="0.5" ry="0.5"/>
						</g>
					</g>
					<g>
						<ellipse class="st2" cx="238" cy="221.9" rx="1.2" ry="1.1"/>
						<g>
							<ellipse class="st2" cx="237.3" cy="221.2" rx="0.6" ry="0.5"/>
							<ellipse class="st2" cx="238.7" cy="221.2" rx="0.6" ry="0.5"/>
						</g>
						<ellipse class="st2" cx="238" cy="224.1" rx="1.3" ry="1.5"/>
						<g>
							<ellipse class="st2" cx="236.5" cy="223.7" rx="0.5" ry="0.4"/>
							<ellipse class="st2" cx="239.4" cy="223.7" rx="0.5" ry="0.4"/>
						</g>
						<g>
							<ellipse class="st2" cx="236.9" cy="225.5" rx="0.5" ry="0.5"/>
							<ellipse class="st2" cx="239" cy="225.5" rx="0.5" ry="0.5"/>
						</g>
					</g>
					<g>
						<ellipse class="st2" cx="247.4" cy="223.9" rx="1.2" ry="1.1"/>
						<g>
							<ellipse class="st2" cx="246.7" cy="223.2" rx="0.6" ry="0.5"/>
							<ellipse class="st2" cx="248.1" cy="223.2" rx="0.6" ry="0.5"/>
						</g>
						<ellipse class="st2" cx="247.4" cy="226.1" rx="1.3" ry="1.5"/>
						<g>
							<ellipse class="st2" cx="245.9" cy="225.7" rx="0.5" ry="0.4"/>
							<ellipse class="st2" cx="248.9" cy="225.7" rx="0.5" ry="0.4"/>
						</g>
						<g>
							<ellipse class="st2" cx="246.3" cy="227.5" rx="0.5" ry="0.5"/>
							<ellipse class="st2" cx="248.4" cy="227.5" rx="0.5" ry="0.5"/>
						</g>
					</g>
				</g>
				<g>
					<path class="st5" d="M192.3,279.6h83.9c0.8,0,1.4-0.6,1.4-1.4v-9.5c0-0.8-0.6-1.4-1.4-1.4h-83.9c-0.8,0-1.4,0.6-1.4,1.4v9.5
						C190.9,278.9,191.6,279.6,192.3,279.6z"/>
					<g>
						<g>
							<path class="st1" d="M278.8,226.5c-1.2,0-2.2,0.9-2.2,1.9v3.6H192v-3.6c0-1.1-1-1.9-2.2-1.9s-2.2,0.9-2.2,1.9v53h1.7l0.7,5.8
								h2.6l0.7-5.8H275l0.7,5.8h2.6l0.7-5.8h1.7v-53C281,227.4,280,226.5,278.8,226.5z M276.7,236v41.6h-6.5V236H276.7L276.7,236z
								 M268,236v41.6h-6.5V236H268L268,236z M259.3,236v41.6h-6.5V236H259.3L259.3,236z M250.6,236v41.6h-6.5V236H250.6L250.6,236z
								 M242,236v41.6h-6.5V236H242L242,236z M233.3,236v41.6h-6.5V236H233.3L233.3,236z M224.6,236v41.6h-6.5V236H224.6L224.6,236z
								 M215.9,236v41.6h-6.5V236H215.9L215.9,236z M207.2,236v41.6h-6.5V236H207.2L207.2,236z M198.5,236v41.6H192V236H198.5
								L198.5,236z"/>
						</g>
						<g>
							<path class="st7" d="M278.8,226.5c-1.2,0-2.2,0.9-2.2,1.9v3.6H192v-3.6c0-1.1-1-1.9-2.2-1.9s-2.2,0.9-2.2,1.9v53h1.7l0.7,5.8
								h2.6l0.7-5.8H275l0.7,5.8h2.6l0.7-5.8h1.7v-53C281,227.4,280,226.5,278.8,226.5z M276.7,236v41.6h-6.5V236H276.7L276.7,236z
								 M268,236v41.6h-6.5V236H268L268,236z M259.3,236v41.6h-6.5V236H259.3L259.3,236z M250.6,236v41.6h-6.5V236H250.6L250.6,236z
								 M242,236v41.6h-6.5V236H242L242,236z M233.3,236v41.6h-6.5V236H233.3L233.3,236z M224.6,236v41.6h-6.5V236H224.6L224.6,236z
								 M215.9,236v41.6h-6.5V236H215.9L215.9,236z M207.2,236v41.6h-6.5V236H207.2L207.2,236z M198.5,236v41.6H192V236H198.5
								L198.5,236z"/>
						</g>
					</g>
				</g>
			</g>
			<g>
				<rect x="150.4" y="183.5" class="st5" width="51.7" height="2.7"/>
				<rect x="150.4" y="202.1" class="st5" width="51.7" height="2.7"/>
				<g>
					<g>
						<rect x="168.4" y="196.8" class="st5" width="24.1" height="4.5"/>
						<rect x="169.4" y="201.3" class="st5" width="22.1" height="0.9"/>
					</g>
					<g>
						<rect x="171.6" y="191.4" class="st5" width="18.2" height="4.5"/>
						<rect x="172.4" y="195.9" class="st5" width="16.7" height="0.9"/>
					</g>
				</g>
				<g>
					<g>
						<path class="st1" d="M167,182.7V169h10.5v13.7H167z M175.5,180.6V171h-6.4v9.6H175.5z"/>
						<path class="st2" d="M177,169.5v12.7h-9.5v-12.7H177 M168.5,181.1h7.4v-10.6h-7.4V181.1 M178,168.5h-1h-9.5h-1v1v12.7v1h1h9.5
							h1v-1v-12.7V168.5L178,168.5z M169.5,171.5h5.4v8.6h-5.4V171.5L169.5,171.5z"/>
					</g>
				</g>
			</g>
			<g>
				<g>
					<g>
						<path class="st1" d="M97.8,251.4H80.5c-0.6-9.6-3.3-18.2-8.1-27.2c-1.4-2.3-4.1-3.2-5.9-2s-2.2,3.7-1,5.7
							c4.2,7.9,6.3,15.5,6.8,24c-1.3,0.9-2.2,3-2.2,5.4c0,3.3,1.7,5.9,3.8,5.9h24c2.1,0,3.8-2.7,3.8-5.9S99.9,251.4,97.8,251.4z"/>
					</g>
					<g>
						<path class="st7" d="M97.8,251.4H80.5c-0.6-9.6-3.3-18.2-8.1-27.2c-1.4-2.3-4.1-3.2-5.9-2s-2.2,3.7-1,5.7
							c4.2,7.9,6.3,15.5,6.8,24c-1.3,0.9-2.2,3-2.2,5.4c0,3.3,1.7,5.9,3.8,5.9h24c2.1,0,3.8-2.7,3.8-5.9S99.9,251.4,97.8,251.4z"/>
					</g>
				</g>
				<g>
					<g>
						<path class="st1" d="M114.5,277.5c-0.6-0.8-1.8-1-2.7-0.5c-2.6,1.3-5.1,2.3-7.7,3.2c-4.5-9.2-6.3-18.4-5.2-27.5h0.9
							c1.1,0,2.1-0.9,2.2-1.9c0-0.1,0-0.2,0-0.3s0-0.2,0-0.3c-0.2-1.1-1.1-1.9-2.2-1.9h-1.1c-0.7,0-1.2,0.3-1.6,0.7H72.7
							c-0.7-7.8-3-15.6-7-23.4c0.1-0.4,0-0.9-0.2-1.2l-1-1.7c-0.4-0.8-1.4-1-2.2-0.6l-1.2,0.6c-0.9,0.4-1.2,1.5-0.7,2.3l1,1.7
							c0.3,0.6,1,0.9,1.7,0.8c8.8,17.7,8.8,35.1,0,52.8c-2.6-0.9-5.2-2-7.7-3.2c-1-0.5-2.2-0.3-2.7,0.5c-0.6,0.8-0.2,2,0.8,2.5
							c20,9.7,40.5,9.7,60.4,0C114.6,279.5,115,278.3,114.5,277.5z M92.9,252H96c-0.4,3.2-0.5,6.3-0.2,9.5h-2.9V252z M87.4,252h3.9
							v9.5h-3.9V252z M82,252h3.9v9.5H82V252z M76.5,252h3.9v9.5h-3.9V252z M72.7,252H75v9.5h-2.8C72.6,258.3,72.8,255.1,72.7,252z
							 M65.9,281.2c2.7-5.4,4.6-10.8,5.7-16.1l0,0h24.5h0.1c0.8,5.3,2.5,10.7,5.1,16C89.6,284.7,77.7,284.7,65.9,281.2z"/>
					</g>
					<g>
						<path class="st7" d="M114.5,277.5c-0.6-0.8-1.8-1-2.7-0.5c-2.6,1.3-5.1,2.3-7.7,3.2c-4.5-9.2-6.3-18.4-5.2-27.5h0.9
							c1.1,0,2.1-0.9,2.2-1.9c0-0.1,0-0.2,0-0.3s0-0.2,0-0.3c-0.2-1.1-1.1-1.9-2.2-1.9h-1.1c-0.7,0-1.2,0.3-1.6,0.7H72.7
							c-0.7-7.8-3-15.6-7-23.4c0.1-0.4,0-0.9-0.2-1.2l-1-1.7c-0.4-0.8-1.4-1-2.2-0.6l-1.2,0.6c-0.9,0.4-1.2,1.5-0.7,2.3l1,1.7
							c0.3,0.6,1,0.9,1.7,0.8c8.8,17.7,8.8,35.1,0,52.8c-2.6-0.9-5.2-2-7.7-3.2c-1-0.5-2.2-0.3-2.7,0.5c-0.6,0.8-0.2,2,0.8,2.5
							c20,9.7,40.5,9.7,60.4,0C114.6,279.5,115,278.3,114.5,277.5z M92.9,252H96c-0.4,3.2-0.5,6.3-0.2,9.5h-2.9V252z M87.4,252h3.9
							v9.5h-3.9V252z M82,252h3.9v9.5H82V252z M76.5,252h3.9v9.5h-3.9V252z M72.7,252H75v9.5h-2.8C72.6,258.3,72.8,255.1,72.7,252z
							 M65.9,281.2c2.7-5.4,4.6-10.8,5.7-16.1l0,0h24.5h0.1c0.8,5.3,2.5,10.7,5.1,16C89.6,284.7,77.7,284.7,65.9,281.2z"/>
					</g>
				</g>
			</g>
		</g>
	</g>
	<g>
		<g>
			<g>
				<polygon class="st5" points="435.3,586 430.4,586 433.6,600.6 438.5,600.6 				"/>
				<polygon class="st5" points="383.9,586 388.8,586 385.6,600.6 380.8,600.6 				"/>
			</g>
			<g>
				<path class="st5" d="M391.2,585.4h5.5c3,0,10.9,0,13.9,0h18.6c4.4,0,7.9-3.9,7.9-8.7v-22.8c0-4.2-3.4-7.6-7.6-7.6h-24.9h-1.9
					h-11.9c-4.2,0-7.6,3.4-7.6,7.6v22.7C383.3,581.5,386.9,585.4,391.2,585.4z"/>
				<path class="st5" d="M434.3,558.3v16.9h-13h-23.2h-13v-16.9c0-3.5-2.8-6.3-6.3-6.3l0,0c-3.5,0-6.3,2.8-6.3,6.3v20.5
					c0,5,3.7,9,8.2,9h17.4h23.1h17.5c4.5,0,8.2-4,8.2-9v-20.5c0-3.5-2.8-6.3-6.3-6.3l0,0C437.1,551.9,434.3,554.8,434.3,558.3z"/>
			</g>
			<path class="st14" d="M386.7,590.9"/>
		</g>
	</g>
</g>
<g>
	<rect x="536.9" y="255" class="st5" width="65.5" height="33.5"/>
	<g>
		<rect x="536.9" y="254.6" class="st2" width="65.5" height="1.1"/>
	</g>
	<g>
		<rect x="536.9" y="270.2" class="st2" width="65.5" height="1.1"/>
	</g>
	<rect x="540.7" y="288.7" class="st2" width="6.5" height="7.8"/>
	<rect x="592.2" y="288.7" class="st2" width="6.5" height="7.8"/>
	<g>
		<path class="st5" d="M558.3,264.4c-1,0-1.8-0.8-1.8-1.8s0.8-1.8,1.8-1.8s1.8,0.8,1.8,1.8S559.3,264.4,558.3,264.4z"/>
	</g>
	<g>
		<path class="st5" d="M558.3,281.3c-1,0-1.8-0.8-1.8-1.8s0.8-1.8,1.8-1.8s1.8,0.8,1.8,1.8S559.3,281.3,558.3,281.3z"/>
	</g>
	<g>
		<path class="st5" d="M581,264.4c-1,0-1.8-0.8-1.8-1.8s0.8-1.8,1.8-1.8s1.8,0.8,1.8,1.8S582,264.4,581,264.4z"/>
	</g>
	<g>
		<path class="st5" d="M581,281.3c-1,0-1.8-0.8-1.8-1.8s0.8-1.8,1.8-1.8s1.8,0.8,1.8,1.8S582,281.3,581,281.3z"/>
	</g>
</g>
<g>
	<path class="st17" d="M240.1,533.9l-29.7-21.1c0,0-4.2-2-8-2s-24.7,0-24.7,0l4.2,23.1H240.1z"/>
	<path class="st18" d="M191.9,540.5h-7.2c0,0-4,2.7,0,4.7h7.2C191.9,545.2,195.4,543.5,191.9,540.5z"/>
	<line class="st19" x1="344.5" y1="559.7" x2="302.4" y2="559.7"/>
	<line class="st19" x1="343.7" y1="566.5" x2="306.4" y2="566.5"/>
	<path class="st19" d="M338,543.7h-8.5l-3.7,6.7c0,0-1,2.7,2,2.7c3,0,9.7,0,9.7,0"/>
	<polyline class="st19" points="337.2,542.5 248.6,538.3 39.8,538.3 	"/>
	<path class="st18" d="M228.2,533l2-5c0,0,1.2-1.2,2.7-0.5c1.5,0.7,3,2,2.7,3.5c-0.2,1.5-1.7,4.2-1.7,4.2s-1.2,1-2.2,0.7
		c-1-0.2-3-1-3-1S227.9,534,228.2,533z"/>
	<polyline class="st20" points="251.6,532.8 249.9,533.5 214.2,509.3 214.2,507.6 	"/>
	<circle cx="281.6" cy="578.3" r="21.3"/>
	<circle class="st21" cx="281.6" cy="578.3" r="10.8"/>
	<path class="st22" d="M39,542.5h4c0,0,3.5,0,3,3.5c-0.5,3.5-1,5.5-1,5.5s-0.5,2.2-2.7,2.2c-2.2,0-4.7,0-4.7,0"/>
	<polyline class="st19" points="179.8,578.4 179.8,538 175,508.6 	"/>
	<path class="st1" d="M91.5,558c0,0,5.8-5.7,16.4-5.8c0,0,11.6-0.4,17.8,7.4L91.5,558z"/>
	<path class="st17" d="M175,533.8l-2.5-23.2h-34.7c0,0-3.7-0.2-5,2c-1.2,2.2-13.7,21.2-13.7,21.2H175z"/>
	<polygon class="st17" points="127.6,509.3 124.4,509.3 101.7,532.8 111.9,532.8 	"/>
	<path class="st18" d="M127.6,540.8h-7.2c0,0-4,2.7,0,4.7h7.2C127.6,545.5,131.1,543.7,127.6,540.8z"/>
	<path class="st20" d="M336.7,557.2c0,0,1.7-8.7,1.2-14.2c-3.7-2.7-45.4-6.2-84.6-8.7c-3.2-3.5-35.4-26.7-41.4-27.9
		c-6,0-87.6,0-87.6,0s-4.7-0.5-9.5,3.5c-4.7,4-28.2,24-28.2,24s-34.7,1.7-40.9,2.5c-6.2,0.7-6.2,2-6.7,5.5c-0.5,3.5-2,15.5-2,15.5
		l-4.5,1.5c0,0-2.7,0.7-1.2,3c1.5,2.2,8.5,13,8.5,13h43.7c0,0,4.5-20.4,23.7-20.4c19.2,0,25.4,17.9,25.4,28.3c8.2,0,123.3,0,123.3,0
		s-0.1-28.9,25.6-29c23.7-0.1,25.1,24.7,25.1,24.7l29.2-3c0,0,1.5,0.2,1-2.5c2.7-2,7.2-5.2,7.2-5.2l1.2-7.2
		C345.2,560.5,343,556.2,336.7,557.2z"/>
	<path class="st19" d="M309.3,577.9c0,0-1.5-27-27.7-27c-28.6,0-28,27.7-28,27.7H135.1c0,0-4-26.6-26.4-26.6
		c-22.5,0-26.2,20.1-26,22.3"/>
	<path class="st19" d="M135.1,578.7c0,0-3-16.2-8.7-24c-5.7-7.7-13-11-12.5-16.5c0.2-2.7,1.2-3.7,1.2-3.7l15.7-24
		c0,0,1.2-2.1,4.7-2.1c3.5,0,69.9,0,69.9,0s4.2,0.4,7,2.4c2.7,2,31.7,23.2,31.7,23.2s6.1,3.5,6.1,7.5c0,4.3,0,36.9,0,36.9"/>
	<circle cx="107.4" cy="578.4" r="21.3"/>
	<circle class="st21" cx="107.4" cy="578.4" r="10.8"/>
</g>
</svg>
